<svg width="47" height="43" viewBox="0 0 47 43" fill="none" xmlns="http://www.w3.org/2000/svg">
<rect x="4" width="43" height="43" rx="7" fill="#F2F2F2"/>
<mask id="path-2-inside-1_513_160" fill="white">
<path d="M18 4C13.11 4 12.4995 4.0225 10.5795 4.108C8.6625 4.198 7.3575 4.4995 6.21 4.945C5.0265 5.404 4.0215 6.0205 3.021 7.021C2.0205 8.0215 1.4025 9.025 0.945 10.21C0.4995 11.3575 0.1965 12.6625 0.108 14.5795C0.018 16.4995 0 17.11 0 22C0 26.89 0.0225 27.5005 0.108 29.4205C0.198 31.336 0.4995 32.6425 0.945 33.79C1.39694 34.9913 2.1054 36.0796 3.021 36.979C3.91992 37.8952 5.00835 38.6038 6.21 39.055C7.359 39.499 8.664 39.8035 10.5795 39.892C12.4995 39.982 13.11 40 18 40C22.89 40 23.5005 39.9775 25.4205 39.892C27.336 39.802 28.6425 39.499 29.79 39.055C30.991 38.6025 32.0792 37.8941 32.979 36.979C33.8955 36.0803 34.6041 34.9918 35.055 33.79C35.499 32.6425 35.8035 31.336 35.892 29.4205C35.982 27.5005 36 26.89 36 22C36 17.11 35.9775 16.4995 35.892 14.5795C35.802 12.664 35.499 11.356 35.055 10.21C34.6028 9.00883 33.8944 7.92059 32.979 7.021C32.0807 6.10396 30.9921 5.39528 29.79 4.945C28.6425 4.4995 27.336 4.1965 25.4205 4.108C23.5005 4.018 22.89 4 18 4ZM18 7.24C22.8045 7.24 23.3775 7.264 25.275 7.3465C27.03 7.429 27.9825 7.72 28.6155 7.969C29.4585 8.2945 30.0555 8.6845 30.6885 9.313C31.317 9.943 31.707 10.5415 32.0325 11.3845C32.2785 12.0175 32.5725 12.97 32.652 14.725C32.7375 16.624 32.757 17.194 32.757 22C32.757 26.806 32.7345 27.3775 32.646 29.275C32.5545 31.03 32.262 31.9825 32.0145 32.6155C31.7217 33.3966 31.2614 34.1042 30.666 34.6885C30.0842 35.2844 29.3771 35.7435 28.596 36.0325C27.966 36.2785 26.9985 36.5725 25.2435 36.652C23.3325 36.7375 22.77 36.757 17.955 36.757C13.1385 36.757 12.576 36.7345 10.6665 36.646C8.91 36.5545 7.9425 36.262 7.3125 36.0145C6.53086 35.7253 5.82401 35.2645 5.244 34.666C4.64187 34.0881 4.18007 33.38 3.894 32.596C3.6465 31.966 3.3555 30.9985 3.264 29.2435C3.1965 27.3535 3.1725 26.77 3.1725 21.9775C3.1725 17.1835 3.1965 16.5985 3.264 14.686C3.3555 12.931 3.6465 11.965 3.894 11.335C4.209 10.48 4.6125 9.895 5.244 9.2635C5.8725 8.635 6.459 8.23 7.3125 7.9165C7.9425 7.6675 8.889 7.375 10.644 7.285C12.5565 7.2175 13.119 7.195 17.9325 7.195L18 7.24ZM18 12.757C16.7862 12.757 15.5843 12.9961 14.4629 13.4606C13.3414 13.9251 12.3225 14.6059 11.4642 15.4642C10.6059 16.3225 9.92509 17.3414 9.46058 18.4629C8.99608 19.5843 8.757 20.7862 8.757 22C8.757 23.2138 8.99608 24.4157 9.46058 25.5371C9.92509 26.6586 10.6059 27.6775 11.4642 28.5358C12.3225 29.3941 13.3414 30.0749 14.4629 30.5394C15.5843 31.0039 16.7862 31.243 18 31.243C20.4514 31.243 22.8024 30.2692 24.5358 28.5358C26.2692 26.8024 27.243 24.4514 27.243 22C27.243 19.5486 26.2692 17.1976 24.5358 15.4642C22.8024 13.7308 20.4514 12.757 18 12.757ZM18 28C14.685 28 12 25.315 12 22C12 18.685 14.685 16 18 16C21.315 16 24 18.685 24 22C24 25.315 21.315 28 18 28ZM29.769 12.3925C29.7482 12.9514 29.5115 13.4805 29.1087 13.8686C28.7059 14.2567 28.1683 14.4735 27.609 14.4735C27.0497 14.4735 26.5121 14.2567 26.1093 13.8686C25.7065 13.4805 25.4698 12.9514 25.449 12.3925C25.449 11.8196 25.6766 11.2702 26.0816 10.8651C26.4867 10.4601 27.0361 10.2325 27.609 10.2325C28.1819 10.2325 28.7313 10.4601 29.1364 10.8651C29.5414 11.2702 29.769 11.8196 29.769 12.3925Z"/>
</mask>
<path d="M18 4C13.11 4 12.4995 4.0225 10.5795 4.108C8.6625 4.198 7.3575 4.4995 6.21 4.945C5.0265 5.404 4.0215 6.0205 3.021 7.021C2.0205 8.0215 1.4025 9.025 0.945 10.21C0.4995 11.3575 0.1965 12.6625 0.108 14.5795C0.018 16.4995 0 17.11 0 22C0 26.89 0.0225 27.5005 0.108 29.4205C0.198 31.336 0.4995 32.6425 0.945 33.79C1.39694 34.9913 2.1054 36.0796 3.021 36.979C3.91992 37.8952 5.00835 38.6038 6.21 39.055C7.359 39.499 8.664 39.8035 10.5795 39.892C12.4995 39.982 13.11 40 18 40C22.89 40 23.5005 39.9775 25.4205 39.892C27.336 39.802 28.6425 39.499 29.79 39.055C30.991 38.6025 32.0792 37.8941 32.979 36.979C33.8955 36.0803 34.6041 34.9918 35.055 33.79C35.499 32.6425 35.8035 31.336 35.892 29.4205C35.982 27.5005 36 26.89 36 22C36 17.11 35.9775 16.4995 35.892 14.5795C35.802 12.664 35.499 11.356 35.055 10.21C34.6028 9.00883 33.8944 7.92059 32.979 7.021C32.0807 6.10396 30.9921 5.39528 29.79 4.945C28.6425 4.4995 27.336 4.1965 25.4205 4.108C23.5005 4.018 22.89 4 18 4ZM18 7.24C22.8045 7.24 23.3775 7.264 25.275 7.3465C27.03 7.429 27.9825 7.72 28.6155 7.969C29.4585 8.2945 30.0555 8.6845 30.6885 9.313C31.317 9.943 31.707 10.5415 32.0325 11.3845C32.2785 12.0175 32.5725 12.97 32.652 14.725C32.7375 16.624 32.757 17.194 32.757 22C32.757 26.806 32.7345 27.3775 32.646 29.275C32.5545 31.03 32.262 31.9825 32.0145 32.6155C31.7217 33.3966 31.2614 34.1042 30.666 34.6885C30.0842 35.2844 29.3771 35.7435 28.596 36.0325C27.966 36.2785 26.9985 36.5725 25.2435 36.652C23.3325 36.7375 22.77 36.757 17.955 36.757C13.1385 36.757 12.576 36.7345 10.6665 36.646C8.91 36.5545 7.9425 36.262 7.3125 36.0145C6.53086 35.7253 5.82401 35.2645 5.244 34.666C4.64187 34.0881 4.18007 33.38 3.894 32.596C3.6465 31.966 3.3555 30.9985 3.264 29.2435C3.1965 27.3535 3.1725 26.77 3.1725 21.9775C3.1725 17.1835 3.1965 16.5985 3.264 14.686C3.3555 12.931 3.6465 11.965 3.894 11.335C4.209 10.48 4.6125 9.895 5.244 9.2635C5.8725 8.635 6.459 8.23 7.3125 7.9165C7.9425 7.6675 8.889 7.375 10.644 7.285C12.5565 7.2175 13.119 7.195 17.9325 7.195L18 7.24ZM18 12.757C16.7862 12.757 15.5843 12.9961 14.4629 13.4606C13.3414 13.9251 12.3225 14.6059 11.4642 15.4642C10.6059 16.3225 9.92509 17.3414 9.46058 18.4629C8.99608 19.5843 8.757 20.7862 8.757 22C8.757 23.2138 8.99608 24.4157 9.46058 25.5371C9.92509 26.6586 10.6059 27.6775 11.4642 28.5358C12.3225 29.3941 13.3414 30.0749 14.4629 30.5394C15.5843 31.0039 16.7862 31.243 18 31.243C20.4514 31.243 22.8024 30.2692 24.5358 28.5358C26.2692 26.8024 27.243 24.4514 27.243 22C27.243 19.5486 26.2692 17.1976 24.5358 15.4642C22.8024 13.7308 20.4514 12.757 18 12.757ZM18 28C14.685 28 12 25.315 12 22C12 18.685 14.685 16 18 16C21.315 16 24 18.685 24 22C24 25.315 21.315 28 18 28ZM29.769 12.3925C29.7482 12.9514 29.5115 13.4805 29.1087 13.8686C28.7059 14.2567 28.1683 14.4735 27.609 14.4735C27.0497 14.4735 26.5121 14.2567 26.1093 13.8686C25.7065 13.4805 25.4698 12.9514 25.449 12.3925C25.449 11.8196 25.6766 11.2702 26.0816 10.8651C26.4867 10.4601 27.0361 10.2325 27.609 10.2325C28.1819 10.2325 28.7313 10.4601 29.1364 10.8651C29.5414 11.2702 29.769 11.8196 29.769 12.3925Z" fill="#EA4235"/>
<path d="M10.5795 4.108L9.15591 -27.8603L9.11736 -27.8586L9.07881 -27.8568L10.5795 4.108ZM6.21 4.945L17.7809 34.7798L17.7913 34.7757L6.21 4.945ZM0.945 10.21L30.7757 21.7913L30.7866 21.7633L30.7974 21.7353L0.945 10.21ZM0.108 14.5795L32.0729 16.0779L32.0734 16.0665L32.074 16.0552L0.108 14.5795ZM0.108 29.4205L-31.8603 30.8441L-31.8586 30.8832L-31.8567 30.9224L0.108 29.4205ZM0.945 33.79L30.8956 22.5222L30.8365 22.3651L30.7757 22.2087L0.945 33.79ZM3.021 36.979L25.8634 14.5686L25.6566 14.3579L25.446 14.151L3.021 36.979ZM6.21 39.055L17.7443 9.20606L17.6017 9.15096L17.4587 9.09723L6.21 39.055ZM10.5795 39.892L12.0779 7.9271L12.0671 7.92659L12.0564 7.9261L10.5795 39.892ZM25.4205 39.892L26.8441 71.8603L26.8832 71.8586L26.9224 71.8567L25.4205 39.892ZM29.79 39.055L18.5076 9.10992L18.3749 9.15994L18.2426 9.21113L29.79 39.055ZM32.979 36.979L10.5755 14.1298L10.3668 14.3345L10.1619 14.5429L32.979 36.979ZM35.055 33.79L5.21113 22.2426L5.15169 22.3962L5.09383 22.5504L35.055 33.79ZM35.892 29.4205L3.9271 27.9221L3.92659 27.9329L3.9261 27.9436L35.892 29.4205ZM35.892 14.5795L67.8603 13.1559L67.8586 13.1168L67.8567 13.0776L35.892 14.5795ZM35.055 10.21L5.10654 21.4834L5.16069 21.6273L5.21622 21.7706L35.055 10.21ZM32.979 7.021L10.1188 29.4132L10.3322 29.6311L10.5497 29.8448L32.979 7.021ZM29.79 4.945L18.2087 34.7757L18.3865 34.8448L18.5652 34.9117L29.79 4.945ZM25.4205 4.108L23.9221 36.0729L23.9329 36.0734L23.9436 36.0739L25.4205 4.108ZM25.275 7.3465L26.7776 -24.6182L26.7213 -24.6208L26.665 -24.6233L25.275 7.3465ZM28.6155 7.969L16.9015 37.7479L16.9952 37.7847L17.089 37.821L28.6155 7.969ZM30.6885 9.313L53.3429 -13.2874L53.2891 -13.3413L53.2351 -13.395L30.6885 9.313ZM32.0325 11.3845L2.18052 22.911L2.19308 22.9435L2.2057 22.976L32.0325 11.3845ZM32.652 14.725L64.6196 13.2857L64.6192 13.2769L32.652 14.725ZM32.646 29.275L64.6026 30.9411L64.6072 30.8535L64.6113 30.7659L32.646 29.275ZM32.0145 32.6155L2.21161 20.9627L2.1296 21.1724L2.05056 21.3833L32.0145 32.6155ZM30.666 34.6885L8.25271 11.849L8.00801 12.0891L7.7685 12.3344L30.666 34.6885ZM28.596 36.0325L17.4934 6.02031L17.2241 6.11993L16.9566 6.22436L28.596 36.0325ZM25.2435 36.652L26.6738 68.62L26.6827 68.6196L26.6916 68.6192L25.2435 36.652ZM10.6665 36.646L9.00181 68.6027L9.09338 68.6074L9.18498 68.6117L10.6665 36.646ZM7.3125 36.0145L19.0134 6.23045L18.7162 6.11369L18.4167 6.00288L7.3125 36.0145ZM5.244 34.666L28.2233 12.396L27.82 11.9799L27.402 11.5787L5.244 34.666ZM3.894 32.596L33.9554 21.6272L33.8212 21.2595L33.678 20.8951L3.894 32.596ZM3.264 29.2435L-28.7156 30.3856L-28.7063 30.6477L-28.6926 30.9096L3.264 29.2435ZM3.264 14.686L-28.6926 13.0199L-28.7066 13.2885L-28.7161 13.5573L3.264 14.686ZM3.894 11.335L33.678 23.0359L33.8029 22.718L33.921 22.3976L3.894 11.335ZM7.3125 7.9165L18.3457 37.9543L18.7119 37.8198L19.0747 37.6764L7.3125 7.9165ZM10.644 7.285L9.51529 -24.6951L9.26012 -24.6861L9.00513 -24.673L10.644 7.285ZM17.9325 7.195L35.6829 -19.4306L27.6213 -24.805H17.9325V7.195ZM8.757 22H-23.243H8.757ZM18 31.243V-0.756999V31.243ZM27.609 14.4735L27.609 -17.5265L27.609 14.4735ZM25.449 12.3925L-6.551 12.3925V12.9887L-6.52879 13.5844L25.449 12.3925ZM27.609 10.2325V42.2325V10.2325ZM18 -28C12.926 -28 11.7716 -27.9768 9.15591 -27.8603L12.0031 36.0763C12.8914 36.0368 13.1584 36.0264 13.6959 36.0177C14.4051 36.0062 15.5359 36 18 36V-28ZM9.07881 -27.8568C4.18158 -27.6269 -0.587179 -26.7431 -5.37134 -24.8857L17.7913 34.7757C16.7347 35.186 15.5813 35.5311 14.401 35.7679C13.2816 35.9925 12.4585 36.055 12.0802 36.0728L9.07881 -27.8568ZM-5.3609 -24.8898C-10.4029 -22.9343 -15.2501 -19.9627 -19.6064 -15.6064L25.6484 29.6484C24.6425 30.6543 23.3709 31.722 21.8346 32.7083C20.3056 33.6898 18.8902 34.3496 17.7809 34.7798L-5.3609 -24.8898ZM-19.6064 -15.6064C-23.9391 -11.2737 -26.9343 -6.42591 -28.9074 -1.3153L30.7974 21.7353C30.3574 22.875 29.6887 24.3074 28.7005 25.8452C27.7093 27.3877 26.6418 28.655 25.6484 29.6484L-19.6064 -15.6064ZM-28.8857 -1.37134C-30.7367 3.39636 -31.6301 8.16847 -31.858 13.1038L32.074 16.0552C32.0558 16.449 31.9921 17.2824 31.7658 18.409C31.5274 19.5954 31.1815 20.7461 30.7757 21.7913L-28.8857 -1.37134ZM-31.8569 13.0811C-31.9832 15.7755 -32 16.9948 -32 22H32C32 19.5177 32.0051 18.3906 32.0163 17.678C32.0244 17.1632 32.0338 16.9121 32.0729 16.0779L-31.8569 13.0811ZM-32 22C-32 27.074 -31.9768 28.2284 -31.8603 30.8441L32.0763 27.9969C32.0368 27.1086 32.0264 26.8416 32.0177 26.3041C32.0062 25.5949 32 24.4641 32 22H-32ZM-31.8567 30.9224C-31.6269 35.8145 -30.744 40.5849 -28.8857 45.3713L30.7757 22.2087C31.1874 23.2689 31.5321 24.4225 31.7683 25.6C31.9924 26.7173 32.0549 27.5393 32.0727 27.9186L-31.8567 30.9224ZM-29.0056 45.0578C-26.9153 50.6138 -23.6387 55.6471 -19.404 59.807L25.446 14.151C27.8495 16.512 29.7092 19.3688 30.8956 22.5222L-29.0056 45.0578ZM-19.8214 59.3894C-15.6544 63.6367 -10.609 66.9212 -5.03865 69.0128L17.4587 9.09723C20.6257 10.2864 23.4943 12.1538 25.8634 14.5686L-19.8214 59.3894ZM-5.32432 68.9039C-0.608026 70.7264 4.13936 71.6286 9.10261 71.8579L12.0564 7.9261C12.462 7.94484 13.2966 8.00967 14.4181 8.23526C15.5971 8.47244 16.7291 8.81374 17.7443 9.20606L-5.32432 68.9039ZM9.08115 71.8569C11.7755 71.9832 12.9948 72 18 72V8C15.5177 8 14.3906 7.99487 13.678 7.98369C13.1632 7.97561 12.9122 7.96621 12.0779 7.9271L9.08115 71.8569ZM18 72C23.074 72 24.2284 71.9768 26.8441 71.8603L23.9969 7.92368C23.1086 7.96324 22.8416 7.97355 22.3041 7.98229C21.5949 7.99381 20.4641 8 18 8V72ZM26.9224 71.8567C31.84 71.6257 36.5919 70.735 41.3374 68.8989L18.2426 9.21113C19.2801 8.80967 20.4196 8.46826 21.592 8.23278C22.7059 8.00906 23.5294 7.94555 23.9186 7.92726L26.9224 71.8567ZM41.0724 69.0001C46.6175 66.9109 51.6416 63.6402 55.7961 59.4151L10.1619 14.5429C12.5168 12.148 15.3645 10.2941 18.5076 9.10992L41.0724 69.0001ZM55.3825 59.8282C59.6357 55.6579 62.924 50.6067 65.0162 45.0296L5.09383 22.5504C6.28432 19.377 8.15539 16.5028 10.5755 14.1298L55.3825 59.8282ZM64.8989 45.3374C66.7286 40.6085 67.6289 35.853 67.8579 30.8974L3.9261 27.9436C3.9448 27.5389 4.00949 26.7051 4.23494 25.5841C4.47196 24.4055 4.81409 23.2687 5.21113 22.2426L64.8989 45.3374ZM67.8569 30.9189C67.9832 28.2245 68 27.0052 68 22H4C4 24.4823 3.99487 25.6094 3.98369 26.322C3.97561 26.8368 3.96621 27.0878 3.9271 27.9221L67.8569 30.9189ZM68 22C68 16.926 67.9768 15.7716 67.8603 13.1559L3.92368 16.0031C3.96324 16.8914 3.97355 17.1584 3.98229 17.6959C3.99381 18.4051 4 19.5359 4 22H68ZM67.8567 13.0776C67.626 8.16768 66.7372 3.40752 64.8938 -1.35058L5.21622 21.7706C4.81003 20.7222 4.46778 19.5778 4.23246 18.4058C4.00888 17.2923 3.94551 16.4697 3.92726 16.0814L67.8567 13.0776ZM65.0035 -1.06342C62.9136 -6.6152 59.6393 -11.645 55.4083 -15.8028L10.5497 29.8448C8.14956 27.4862 6.29208 24.6329 5.10654 21.4834L65.0035 -1.06342ZM55.8392 -15.3712C51.6635 -19.6342 46.603 -22.9285 41.0148 -25.0217L18.5652 34.9117C15.3813 33.7191 12.4979 31.8421 10.1188 29.4132L55.8392 -15.3712ZM41.3713 -24.8857C36.6014 -26.7376 31.8276 -27.6301 26.8974 -27.8579L23.9436 36.0739C23.5488 36.0557 22.7165 35.9919 21.592 35.7661C20.4084 35.5284 19.2575 35.1829 18.2087 34.7757L41.3713 -24.8857ZM26.9189 -27.8569C24.2245 -27.9832 23.0052 -28 18 -28V36C20.4823 36 21.6094 36.0051 22.322 36.0163C22.8368 36.0244 23.0879 36.0338 23.9221 36.0729L26.9189 -27.8569ZM18 39.24C20.4149 39.24 21.5135 39.2465 22.1956 39.2579C22.7181 39.2666 22.9717 39.2766 23.885 39.3163L26.665 -24.6233C24.1126 -24.7343 23.0249 -24.76 18 -24.76V39.24ZM23.7724 39.3112C23.1501 39.282 22.0828 39.1875 20.7059 38.8946C19.2176 38.5779 17.9109 38.145 16.9015 37.7479L40.3295 -21.8099C36.3867 -23.3608 31.9806 -24.3736 26.7776 -24.6182L23.7724 39.3112ZM17.089 37.821C15.8105 37.3273 14.1286 36.5509 12.3017 35.3645C10.4759 34.1787 9.09221 32.9645 8.14194 32.021L53.2351 -13.395C49.4876 -17.1158 45.1461 -19.9508 40.142 -21.883L17.089 37.821ZM8.03413 31.9134C7.05922 30.9362 5.83007 29.5349 4.63704 27.6979C3.44622 25.8643 2.67079 24.1807 2.18052 22.911L61.8845 -0.141974C59.9617 -5.12176 57.1258 -9.49551 53.3429 -13.2874L8.03413 31.9134ZM2.2057 22.976C1.8495 22.0594 1.42269 20.785 1.10544 19.2941C0.811311 17.9119 0.714459 16.8282 0.684781 16.1731L64.6192 13.2769C64.379 7.97406 63.3386 3.59966 61.8593 -0.206959L2.2057 22.976ZM0.684384 16.1643C0.72331 17.0289 0.732567 17.2746 0.740591 17.7801C0.751523 18.469 0.756999 19.5675 0.756999 22H64.757C64.757 17.0386 64.7375 15.9051 64.6196 13.2857L0.684384 16.1643ZM0.756999 22C0.756999 24.4264 0.750734 25.5128 0.739317 26.1838C0.731004 26.6725 0.721841 26.9031 0.680748 27.7841L64.6113 30.7659C64.7337 28.1397 64.757 26.9984 64.757 22H0.756999ZM0.689403 27.6089C0.720768 27.0073 0.817042 25.9714 1.10516 24.6327C1.41668 23.1854 1.83663 21.9217 2.21161 20.9627L61.8174 44.2683C63.3193 40.4269 64.3336 36.1014 64.6026 30.9411L0.689403 27.6089ZM2.05056 21.3833C3.3973 17.7906 5.51425 14.5363 8.25271 11.849L53.0793 57.528C57.0086 53.6721 60.0461 49.0027 61.9784 43.8477L2.05056 21.3833ZM7.7685 12.3344C10.5018 9.53464 13.8237 7.37786 17.4934 6.02031L39.6986 66.0447C44.9306 64.1092 49.6665 61.0343 53.5635 57.0426L7.7685 12.3344ZM16.9566 6.22436C17.9688 5.82912 19.2597 5.40606 20.7213 5.09699C22.081 4.80948 23.1466 4.71417 23.7954 4.68478L26.6916 68.6192C31.9224 68.3823 36.3337 67.3641 40.2354 65.8406L16.9566 6.22436ZM23.8132 4.68398C22.9368 4.72319 22.689 4.73253 22.1809 4.74058C21.4911 4.75152 20.3921 4.757 17.955 4.757V68.757C22.9293 68.757 24.0495 68.7374 26.6738 68.62L23.8132 4.68398ZM17.955 4.757C15.5232 4.757 14.4364 4.75073 13.7647 4.73931C13.2737 4.73096 13.0417 4.72173 12.148 4.68031L9.18498 68.6117C11.8155 68.7336 12.942 68.757 17.955 68.757V4.757ZM12.3312 4.68933C12.924 4.72021 13.9413 4.81454 15.2579 5.09605C16.6759 5.39925 17.9588 5.81615 19.0134 6.23045L-4.38838 65.7985C-0.450085 67.3457 3.91557 68.3377 9.00181 68.6027L12.3312 4.68933ZM18.4167 6.00288C22.1224 7.37399 25.4735 9.55864 28.2233 12.396L-17.7353 56.936C-13.8255 60.9703 -9.0607 64.0766 -3.79168 66.0261L18.4167 6.00288ZM27.402 11.5787C30.3249 14.384 32.5667 17.8214 33.9554 21.6272L-26.1674 43.5648C-24.2065 48.9387 -21.0412 53.7922 -16.914 57.7533L27.402 11.5787ZM33.678 20.8951C34.0996 21.9682 34.5158 23.256 34.8172 24.6693C35.0969 25.9816 35.1901 26.9928 35.2206 27.5774L-28.6926 30.9096C-28.4289 35.9669 -27.4466 40.3347 -25.89 44.2969L33.678 20.8951ZM35.2436 28.1014C35.2096 27.148 35.1984 26.835 35.1895 26.2281C35.1788 25.5057 35.1725 24.3708 35.1725 21.9775H-28.8275C-28.8275 27.0052 -28.8011 27.9931 -28.7156 30.3856L35.2436 28.1014ZM35.1725 21.9775C35.1725 19.5841 35.1788 18.4473 35.1895 17.7204C35.1985 17.1051 35.2099 16.7832 35.2441 15.8147L-28.7161 13.5573C-28.801 15.9621 -28.8275 16.9449 -28.8275 21.9775H35.1725ZM35.2206 16.3521C35.1901 16.9373 35.0967 17.9505 34.8162 19.2653C34.5139 20.6822 34.097 21.9694 33.678 23.0359L-25.89 -0.365877C-27.4444 3.59069 -28.4286 7.95643 -28.6926 13.0199L35.2206 16.3521ZM33.921 22.3976C33.3292 24.0037 32.4459 25.891 31.1568 27.8439C29.9007 29.7469 28.6606 31.1017 27.8714 31.8909L-17.3834 -13.3639C-20.8352 -9.91213 -24.0092 -5.49201 -26.133 0.272429L33.921 22.3976ZM27.8714 31.8909C27.0756 32.6867 25.7197 33.9263 23.8187 35.1808C21.8681 36.468 19.9746 37.356 18.3457 37.9543L-3.72071 -22.1213C-9.50902 -19.9952 -13.9389 -16.8085 -17.3834 -13.3639L27.8714 31.8909ZM19.0747 37.6764C18.0862 38.0671 16.7921 38.5002 15.3122 38.8198C13.9458 39.115 12.8901 39.2119 12.2829 39.243L9.00513 -24.673C3.82612 -24.4074 -0.543187 -23.3874 -4.44973 -21.8434L19.0747 37.6764ZM11.7727 39.2651C12.7338 39.2312 13.0497 39.2201 13.6589 39.2114C14.3863 39.201 15.5239 39.195 17.9325 39.195V-24.805C12.8972 -24.805 11.9318 -24.7804 9.51529 -24.6951L11.7727 39.2651ZM0.182126 33.8206L0.249626 33.8656L35.7504 -19.3856L35.6829 -19.4306L0.182126 33.8206ZM18 -19.243C12.5839 -19.243 7.22081 -18.1762 2.21699 -16.1036L26.7087 43.0247C23.9477 44.1684 20.9885 44.757 18 44.757V-19.243ZM2.21699 -16.1036C-2.78684 -14.0309 -7.33343 -10.993 -11.1632 -7.16321L34.0916 38.0916C31.9784 40.2048 29.4697 41.8811 26.7087 43.0247L2.21699 -16.1036ZM-11.1632 -7.16321C-14.993 -3.33344 -18.0309 1.21316 -20.1036 6.21699L39.0247 30.7087C37.8811 33.4697 36.2048 35.9784 34.0916 38.0916L-11.1632 -7.16321ZM-20.1036 6.21699C-22.1762 11.2208 -23.243 16.5839 -23.243 22H40.757C40.757 24.9885 40.1684 27.9477 39.0247 30.7087L-20.1036 6.21699ZM-23.243 22C-23.243 27.4161 -22.1762 32.7792 -20.1036 37.783L39.0247 13.2913C40.1684 16.0523 40.757 19.0115 40.757 22H-23.243ZM-20.1036 37.783C-18.0309 42.7869 -14.993 47.3335 -11.1632 51.1632L34.0916 5.90837C36.2048 8.02154 37.8811 10.5303 39.0247 13.2913L-20.1036 37.783ZM-11.1632 51.1632C-7.33345 54.993 -2.78686 58.0309 2.21699 60.1036L26.7087 0.975273C29.4697 2.11892 31.9785 3.7952 34.0916 5.90837L-11.1632 51.1632ZM2.21699 60.1036C7.2208 62.1762 12.5839 63.243 18 63.243V-0.756999C20.9885 -0.756999 23.9477 -0.168364 26.7087 0.975273L2.21699 60.1036ZM18 63.243C28.9383 63.243 39.4287 58.8977 47.1632 51.1632L1.90837 5.90837C6.17612 1.64062 11.9644 -0.756999 18 -0.756999V63.243ZM47.1632 51.1632C54.8977 43.4287 59.243 32.9383 59.243 22H-4.757C-4.757 15.9644 -2.35938 10.1761 1.90837 5.90837L47.1632 51.1632ZM59.243 22C59.243 11.0617 54.8978 0.571343 47.1632 -7.16321L1.90837 38.0916C-2.35938 33.8239 -4.757 28.0356 -4.757 22H59.243ZM47.1632 -7.16321C39.4286 -14.8978 28.9383 -19.243 18 -19.243V44.757C11.9645 44.757 6.17613 42.3594 1.90837 38.0916L47.1632 -7.16321ZM18 -4C32.3581 -4 44 7.64189 44 22H-20C-20 42.9881 -2.98811 60 18 60V-4ZM44 22C44 36.3581 32.3581 48 18 48V-16C-2.98811 -16 -20 1.01189 -20 22H44ZM18 48C3.64189 48 -8 36.3581 -8 22H56C56 1.01189 38.9881 -16 18 -16V48ZM-8 22C-8 7.64189 3.64189 -4 18 -4V60C38.9881 60 56 42.9881 56 22H-8ZM-2.20879 11.2006C-1.92119 3.4847 1.34618 -3.81928 6.90668 -9.17638L51.3107 36.9136C57.6768 30.7804 61.4175 22.4182 61.7468 13.5844L-2.20879 11.2006ZM6.90668 -9.17638C12.4672 -14.5335 19.8878 -17.5265 27.609 -17.5265V46.4735C36.4488 46.4735 44.9446 43.0468 51.3107 36.9136L6.90668 -9.17638ZM27.609 -17.5265C35.3302 -17.5265 42.7508 -14.5335 48.3113 -9.17638L3.90732 36.9136C10.2734 43.0468 18.7691 46.4735 27.609 46.4735L27.609 -17.5265ZM48.3113 -9.17638C53.8718 -3.81928 57.1392 3.4847 57.4268 11.2006L-6.52879 13.5844C-6.19952 22.4182 -2.45878 30.7804 3.90732 36.9136L48.3113 -9.17638ZM57.449 12.3925C57.449 20.3066 54.3051 27.8965 48.7091 33.4926L3.45423 -11.7623C-2.952 -5.35603 -6.551 3.33269 -6.551 12.3925L57.449 12.3925ZM48.7091 33.4926C43.113 39.0887 35.5231 42.2325 27.609 42.2325L27.609 -21.7675C18.5492 -21.7675 9.86048 -18.1685 3.45423 -11.7623L48.7091 33.4926ZM27.609 42.2325C19.6949 42.2325 12.105 39.0887 6.50893 33.4926L51.7638 -11.7623C45.3575 -18.1685 36.6688 -21.7675 27.609 -21.7675L27.609 42.2325ZM6.50893 33.4926C0.912858 27.8965 -2.231 20.3066 -2.231 12.3925L61.769 12.3925C61.769 3.33269 58.17 -5.35603 51.7638 -11.7623L6.50893 33.4926Z" fill="#EA4235" mask="url(#path-2-inside-1_513_160)"/>
</svg>
