<svg width="47" height="43" viewBox="0 0 47 43" fill="none" xmlns="http://www.w3.org/2000/svg">
<rect x="4" width="43" height="43" rx="7" fill="#F2F2F2"/>
<path d="M29.1358 33.1429H24.0715V25.2074C24.0715 23.3151 24.033 20.8798 21.4325 20.8798C18.7921 20.8798 18.3889 22.9389 18.3889 25.0677V33.1429H13.3246V16.8245H18.1894V19.0488H18.2549C18.9346 17.7663 20.5875 16.4127 23.057 16.4127C28.1882 16.4127 29.1372 19.7898 29.1372 24.1857V33.1429H29.1358ZM7.60491 14.5916C7.21857 14.5918 6.83599 14.5158 6.47907 14.3679C6.12214 14.2201 5.79788 14.0033 5.52483 13.73C5.25178 13.4567 5.03532 13.1322 4.88782 12.7751C4.74032 12.4181 4.66469 12.0354 4.66525 11.6491C4.66554 11.0674 4.8383 10.4988 5.16171 10.0153C5.48511 9.53184 5.94463 9.1551 6.48215 8.93276C7.01966 8.71042 7.61104 8.65246 8.1815 8.76622C8.75196 8.87998 9.27587 9.16034 9.68699 9.57186C10.0981 9.98337 10.378 10.5076 10.4912 11.0781C10.6044 11.6487 10.5458 12.24 10.323 12.7773C10.1001 13.3146 9.72293 13.7738 9.23912 14.0967C8.75531 14.4196 8.18659 14.5919 7.60491 14.5916ZM10.1441 33.1429H5.06566V16.8245H10.1441V33.1429ZM31.6693 4H2.52357C1.12855 4 0 5.1029 0 6.46372V35.7348C0 37.0971 1.12855 38.1986 2.52357 38.1986H31.665C33.0586 38.1986 34.1986 37.0971 34.1986 35.7348V6.46372C34.1986 5.1029 33.0586 4 31.665 4H31.6693Z" fill="#109D58"/>
</svg>
