<svg width="51" height="42" viewBox="0 0 51 42" fill="none" xmlns="http://www.w3.org/2000/svg">
<rect x="8" width="43" height="42" rx="7" fill="#F2F2F2"/>
<path d="M41.5157 8.02696C39.9584 8.7126 38.3087 9.16519 36.6195 9.37015C38.3979 8.30123 39.7295 6.62493 40.3683 4.6508C38.7201 5.6127 36.8934 6.31289 34.9488 6.70284C33.6659 5.33094 31.9658 4.42103 30.1127 4.1144C28.2596 3.80777 26.3571 4.12159 24.7006 5.00712C23.0442 5.89265 21.7264 7.30034 20.952 9.0116C20.1777 10.7229 19.99 12.6419 20.4181 14.4708C13.3296 14.1363 7.04695 10.7324 2.84235 5.5867C2.07768 6.88623 1.67883 8.36844 1.68808 9.87622C1.68808 12.8399 3.19591 15.4448 5.48019 16.9752C4.12636 16.9321 2.80244 16.566 1.61875 15.9076V16.0133C1.61799 17.9828 2.29861 19.8919 3.54515 21.4168C4.79169 22.9416 6.52738 23.9883 8.45773 24.3792C7.20692 24.7143 5.89686 24.7647 4.62402 24.5265C5.17213 26.2214 6.23554 27.7029 7.66595 28.7645C9.09635 29.8262 10.8224 30.4149 12.6034 30.4486C9.58685 32.8159 5.86229 34.1007 2.02778 34.0969C1.35185 34.0969 0.677658 34.057 0 33.9808C3.90946 36.484 8.45515 37.8127 13.0974 37.8093C28.7892 37.8093 37.3596 24.8176 37.3596 13.5695C37.3596 13.2073 37.3596 12.8416 37.3336 12.4777C39.0078 11.2729 40.4519 9.7771 41.5971 8.06163L41.5157 8.02696Z" fill="#FABD03"/>
</svg>
