<svg width="303" height="166" viewBox="0 0 303 166" fill="none" xmlns="http://www.w3.org/2000/svg">
<path d="M32.5688 73H19.9688V28.5C19.9688 27.0333 19.9688 25.5333 19.9688 24C20.0354 22.4667 20.1021 20.9333 20.1688 19.4C20.2354 17.8 20.3021 16.3333 20.3688 15C19.7021 15.6667 18.8688 16.4667 17.8688 17.4C16.8688 18.2667 15.8354 19.1667 14.7688 20.1L6.76875 26.5L0.46875 18.7L22.0688 1.6H32.5688V73ZM71.8953 62.5C71.2953 64.8333 70.5286 67.3667 69.5953 70.1C68.662 72.7667 67.662 75.4333 66.5953 78.1C65.5286 80.8333 64.4286 83.4333 63.2953 85.9H54.1953C54.862 83.3 55.4953 80.5333 56.0953 77.6C56.6953 74.7333 57.262 71.9 57.7953 69.1C58.3286 66.3 58.762 63.7333 59.0953 61.4H71.1953L71.8953 62.5ZM131.825 73H82.925V63.7L101.125 45.3C104.725 41.6333 107.658 38.5 109.925 35.9C112.258 33.2333 113.958 30.7667 115.025 28.5C116.158 26.2333 116.725 23.7667 116.725 21.1C116.725 17.8333 115.792 15.4 113.925 13.8C112.058 12.1333 109.592 11.3 106.525 11.3C103.525 11.3 100.725 11.9333 98.125 13.2C95.525 14.4 92.825 16.1333 90.025 18.4L83.125 10.1C85.125 8.36666 87.2583 6.8 89.525 5.39999C91.7917 3.93333 94.3583 2.76666 97.225 1.9C100.092 1.03333 103.425 0.599996 107.225 0.599996C111.825 0.599996 115.758 1.43333 119.025 3.09999C122.358 4.7 124.925 6.93333 126.725 9.8C128.525 12.6667 129.425 16 129.425 19.8C129.425 22.7333 128.992 25.4667 128.125 28C127.258 30.4667 125.992 32.9 124.325 35.3C122.658 37.7 120.625 40.1333 118.225 42.6C115.825 45.0667 113.125 47.7333 110.125 50.6L98.825 61.5V62.1H131.825V73ZM164.952 28.1C169.485 28.1 173.485 28.9333 176.952 30.6C180.418 32.2667 183.118 34.7 185.052 37.9C187.052 41.0333 188.052 44.9 188.052 49.5C188.052 54.5667 186.985 58.9333 184.852 62.6C182.718 66.2667 179.585 69.1 175.452 71.1C171.318 73.0333 166.252 74 160.252 74C156.518 74 153.018 73.6667 149.752 73C146.485 72.3333 143.652 71.3667 141.252 70.1V58.9C143.718 60.2333 146.685 61.3333 150.152 62.2C153.618 63.0667 156.885 63.5 159.952 63.5C163.152 63.5 165.885 63.0667 168.152 62.2C170.418 61.2667 172.152 59.8667 173.352 58C174.552 56.0667 175.152 53.6333 175.152 50.7C175.152 46.7 173.885 43.6667 171.352 41.6C168.818 39.5333 164.885 38.5 159.552 38.5C157.685 38.5 155.652 38.6667 153.452 39C151.318 39.3333 149.552 39.6667 148.152 40L142.752 37L145.452 1.6H183.052V12.6H156.552L155.052 29.1C156.185 28.9 157.518 28.7 159.052 28.5C160.652 28.2333 162.618 28.1 164.952 28.1ZM246.078 37.2C246.078 43 245.645 48.1667 244.778 52.7C243.911 57.2333 242.478 61.1 240.478 64.3C238.545 67.4333 236.011 69.8333 232.878 71.5C229.811 73.1667 226.045 74 221.578 74C215.978 74 211.378 72.5333 207.778 69.6C204.178 66.6667 201.511 62.4667 199.778 57C198.045 51.4667 197.178 44.8667 197.178 37.2C197.178 29.5333 197.978 22.9667 199.578 17.5C201.178 12.0333 203.745 7.83333 207.278 4.89999C210.878 1.96666 215.645 0.499998 221.578 0.499998C227.178 0.499998 231.778 1.96666 235.378 4.89999C238.978 7.76666 241.645 11.9667 243.378 17.5C245.178 22.9667 246.078 29.5333 246.078 37.2ZM209.878 37.3C209.878 43.1 210.245 47.9667 210.978 51.9C211.711 55.7667 212.911 58.7 214.578 60.7C216.311 62.6333 218.645 63.6 221.578 63.6C224.511 63.6 226.811 62.6333 228.478 60.7C230.211 58.7667 231.445 55.8333 232.178 51.9C232.978 47.9667 233.378 43.1 233.378 37.3C233.378 31.4333 232.978 26.5667 232.178 22.7C231.445 18.7667 230.211 15.8333 228.478 13.9C226.811 11.9 224.511 10.9 221.578 10.9C218.645 10.9 216.311 11.9 214.578 13.9C212.911 15.8333 211.711 18.7333 210.978 22.6C210.245 26.4667 209.878 31.3667 209.878 37.3ZM283.505 33.1H302.805V42.4H283.505V61.9H274.105V42.4H254.905V33.1H274.105V13.4H283.505V33.1Z" fill="#109D58"/>
<path d="M30.8758 119.34C29.1304 119.34 27.6118 119.011 26.3198 118.354C25.0504 117.674 24.0644 116.643 23.3618 115.26C22.6818 113.855 22.3418 112.064 22.3418 109.888C22.3418 107.621 22.7158 105.785 23.4638 104.38C24.2344 102.952 25.2884 101.909 26.6258 101.252C27.9631 100.572 29.4931 100.232 31.2158 100.232C32.3718 100.232 33.4031 100.345 34.3098 100.572C35.2164 100.799 35.9871 101.071 36.6218 101.388L35.3638 104.754C34.6611 104.482 33.9584 104.255 33.2558 104.074C32.5531 103.87 31.8731 103.768 31.2158 103.768C30.1958 103.768 29.3458 103.995 28.6658 104.448C28.0084 104.901 27.5211 105.581 27.2038 106.488C26.8864 107.372 26.7278 108.494 26.7278 109.854C26.7278 111.169 26.8864 112.268 27.2038 113.152C27.5438 114.036 28.0424 114.705 28.6998 115.158C29.3571 115.589 30.1731 115.804 31.1478 115.804C32.1904 115.804 33.1084 115.679 33.9018 115.43C34.6951 115.181 35.4431 114.841 36.1458 114.41V118.116C35.4431 118.547 34.6838 118.853 33.8678 119.034C33.0744 119.238 32.0771 119.34 30.8758 119.34ZM44.747 99.314C44.747 100.039 44.713 100.753 44.645 101.456C44.5997 102.136 44.5543 102.646 44.509 102.986H44.781C45.1663 102.351 45.6423 101.841 46.209 101.456C46.7757 101.048 47.399 100.742 48.079 100.538C48.7817 100.334 49.507 100.232 50.255 100.232C51.6377 100.232 52.8277 100.47 53.825 100.946C54.8223 101.422 55.5817 102.159 56.103 103.156C56.647 104.131 56.919 105.411 56.919 106.998V119H52.635V107.848C52.635 106.443 52.363 105.4 51.819 104.72C51.275 104.04 50.4137 103.7 49.235 103.7C48.1017 103.7 47.2063 103.949 46.549 104.448C45.8917 104.924 45.427 105.638 45.155 106.59C44.883 107.519 44.747 108.664 44.747 110.024V119H40.463V93.16H44.747V99.314ZM69.6214 100.232C72.0014 100.232 73.8034 100.753 75.0274 101.796C76.2741 102.816 76.8974 104.425 76.8974 106.624V119H73.8714L73.0214 116.45H72.8854C72.3641 117.107 71.8201 117.663 71.2534 118.116C70.7094 118.547 70.0748 118.853 69.3494 119.034C68.6468 119.238 67.7854 119.34 66.7654 119.34C65.6774 119.34 64.6914 119.136 63.8074 118.728C62.9461 118.32 62.2661 117.697 61.7674 116.858C61.2688 115.997 61.0194 114.92 61.0194 113.628C61.0194 111.724 61.7108 110.296 63.0934 109.344C64.4988 108.369 66.6181 107.837 69.4514 107.746L72.6474 107.644V106.726C72.6474 105.547 72.3641 104.709 71.7974 104.21C71.2308 103.711 70.4374 103.462 69.4174 103.462C68.4881 103.462 67.5928 103.598 66.7314 103.87C65.8701 104.142 65.0314 104.459 64.2154 104.822L62.8554 101.83C63.7621 101.354 64.7934 100.969 65.9494 100.674C67.1281 100.379 68.3521 100.232 69.6214 100.232ZM70.4034 110.364C68.5221 110.432 67.2188 110.761 66.4934 111.35C65.7681 111.917 65.4054 112.687 65.4054 113.662C65.4054 114.523 65.6661 115.147 66.1874 115.532C66.7088 115.917 67.3774 116.11 68.1934 116.11C69.4401 116.11 70.4941 115.759 71.3554 115.056C72.2168 114.331 72.6474 113.265 72.6474 111.86V110.296L70.4034 110.364ZM91.9557 100.232C94.1091 100.232 95.8431 101.037 97.1577 102.646C98.4724 104.233 99.1297 106.601 99.1297 109.752C99.1297 111.837 98.8237 113.594 98.2117 115.022C97.5997 116.45 96.7497 117.527 95.6617 118.252C94.5737 118.977 93.3044 119.34 91.8537 119.34C90.9697 119.34 90.1877 119.227 89.5077 119C88.8277 118.751 88.2497 118.445 87.7737 118.082C87.2977 117.697 86.8897 117.289 86.5497 116.858H86.2777C86.3684 117.266 86.4364 117.731 86.4817 118.252C86.5271 118.751 86.5497 119.227 86.5497 119.68V127.16H82.2657V100.572H85.7337L86.3457 103.02H86.5497C86.8897 102.499 87.2977 102.034 87.7737 101.626C88.2724 101.195 88.8617 100.855 89.5417 100.606C90.2444 100.357 91.0491 100.232 91.9557 100.232ZM90.7317 103.7C89.7344 103.7 88.9297 103.904 88.3177 104.312C87.7057 104.697 87.2637 105.298 86.9917 106.114C86.7197 106.93 86.5724 107.95 86.5497 109.174V109.718C86.5497 111.033 86.6744 112.143 86.9237 113.05C87.1957 113.957 87.6377 114.648 88.2497 115.124C88.8844 115.6 89.7344 115.838 90.7997 115.838C91.7064 115.838 92.4431 115.589 93.0097 115.09C93.5991 114.591 94.0297 113.889 94.3017 112.982C94.5964 112.053 94.7437 110.953 94.7437 109.684C94.7437 107.78 94.4151 106.307 93.7577 105.264C93.1231 104.221 92.1144 103.7 90.7317 103.7ZM110.689 115.906C111.233 115.906 111.754 115.861 112.253 115.77C112.752 115.657 113.216 115.532 113.647 115.396V118.592C113.194 118.796 112.604 118.966 111.879 119.102C111.154 119.261 110.394 119.34 109.601 119.34C108.558 119.34 107.606 119.17 106.745 118.83C105.906 118.467 105.226 117.855 104.705 116.994C104.206 116.133 103.957 114.931 103.957 113.39V103.802H101.475V101.932L104.195 100.436L105.555 96.526H108.241V100.572H113.477V103.802H108.241V113.356C108.241 114.217 108.468 114.863 108.921 115.294C109.374 115.702 109.964 115.906 110.689 115.906ZM124.773 100.232C126.428 100.232 127.845 100.572 129.023 101.252C130.225 101.909 131.154 102.861 131.811 104.108C132.469 105.332 132.797 106.828 132.797 108.596V110.772H120.625C120.671 112.449 121.135 113.753 122.019 114.682C122.903 115.589 124.127 116.042 125.691 116.042C126.893 116.042 127.958 115.929 128.887 115.702C129.839 115.453 130.814 115.101 131.811 114.648V118.082C130.905 118.513 129.964 118.83 128.989 119.034C128.015 119.238 126.847 119.34 125.487 119.34C123.697 119.34 122.099 119 120.693 118.32C119.311 117.617 118.223 116.563 117.429 115.158C116.659 113.753 116.273 112.007 116.273 109.922C116.273 107.814 116.625 106.046 117.327 104.618C118.053 103.167 119.05 102.079 120.319 101.354C121.589 100.606 123.073 100.232 124.773 100.232ZM124.773 103.394C123.64 103.394 122.711 103.768 121.985 104.516C121.283 105.241 120.863 106.329 120.727 107.78H128.649C128.649 106.919 128.502 106.159 128.207 105.502C127.935 104.845 127.516 104.335 126.949 103.972C126.383 103.587 125.657 103.394 124.773 103.394ZM146.773 100.232C147.045 100.232 147.363 100.243 147.725 100.266C148.088 100.289 148.394 100.334 148.643 100.402L148.269 104.38C148.065 104.335 147.793 104.301 147.453 104.278C147.136 104.233 146.853 104.21 146.603 104.21C145.923 104.21 145.266 104.323 144.631 104.55C144.019 104.754 143.464 105.071 142.965 105.502C142.489 105.91 142.104 106.443 141.809 107.1C141.537 107.757 141.401 108.539 141.401 109.446V119H137.117V100.572H140.415L141.027 103.768H141.231C141.594 103.111 142.047 102.521 142.591 102C143.135 101.456 143.759 101.025 144.461 100.708C145.187 100.391 145.957 100.232 146.773 100.232ZM164.605 113.662C164.605 114.886 164.31 115.929 163.721 116.79C163.131 117.629 162.259 118.263 161.103 118.694C159.969 119.125 158.575 119.34 156.921 119.34C155.629 119.34 154.518 119.249 153.589 119.068C152.659 118.887 151.775 118.603 150.937 118.218V114.58C151.843 115.011 152.852 115.373 153.963 115.668C155.073 115.963 156.105 116.11 157.057 116.11C158.235 116.11 159.085 115.929 159.607 115.566C160.128 115.203 160.389 114.716 160.389 114.104C160.389 113.741 160.287 113.413 160.083 113.118C159.879 112.823 159.482 112.517 158.893 112.2C158.303 111.86 157.408 111.441 156.207 110.942C155.028 110.466 154.042 109.99 153.249 109.514C152.478 109.038 151.889 108.471 151.481 107.814C151.095 107.134 150.903 106.284 150.903 105.264C150.903 103.609 151.56 102.363 152.875 101.524C154.189 100.663 155.923 100.232 158.077 100.232C159.21 100.232 160.275 100.345 161.273 100.572C162.293 100.776 163.313 101.116 164.333 101.592L162.973 104.754C162.406 104.505 161.839 104.289 161.273 104.108C160.729 103.904 160.173 103.745 159.607 103.632C159.063 103.519 158.507 103.462 157.941 103.462C157.011 103.462 156.309 103.609 155.833 103.904C155.357 104.176 155.119 104.561 155.119 105.06C155.119 105.445 155.232 105.785 155.459 106.08C155.708 106.352 156.127 106.635 156.717 106.93C157.329 107.202 158.19 107.565 159.301 108.018C160.411 108.449 161.352 108.902 162.123 109.378C162.916 109.831 163.528 110.398 163.959 111.078C164.389 111.758 164.605 112.619 164.605 113.662ZM184.903 100.232C187.283 100.232 189.085 100.753 190.309 101.796C191.555 102.816 192.179 104.425 192.179 106.624V119H189.153L188.303 116.45H188.167C187.645 117.107 187.101 117.663 186.535 118.116C185.991 118.547 185.356 118.853 184.631 119.034C183.928 119.238 183.067 119.34 182.047 119.34C180.959 119.34 179.973 119.136 179.089 118.728C178.227 118.32 177.547 117.697 177.049 116.858C176.55 115.997 176.301 114.92 176.301 113.628C176.301 111.724 176.992 110.296 178.375 109.344C179.78 108.369 181.899 107.837 184.733 107.746L187.929 107.644V106.726C187.929 105.547 187.645 104.709 187.079 104.21C186.512 103.711 185.719 103.462 184.699 103.462C183.769 103.462 182.874 103.598 182.013 103.87C181.151 104.142 180.313 104.459 179.497 104.822L178.137 101.83C179.043 101.354 180.075 100.969 181.231 100.674C182.409 100.379 183.633 100.232 184.903 100.232ZM185.685 110.364C183.803 110.432 182.5 110.761 181.775 111.35C181.049 111.917 180.687 112.687 180.687 113.662C180.687 114.523 180.947 115.147 181.469 115.532C181.99 115.917 182.659 116.11 183.475 116.11C184.721 116.11 185.775 115.759 186.637 115.056C187.498 114.331 187.929 113.265 187.929 111.86V110.296L185.685 110.364ZM204.993 119.34C203.248 119.34 201.729 119.011 200.437 118.354C199.168 117.674 198.182 116.643 197.479 115.26C196.799 113.855 196.459 112.064 196.459 109.888C196.459 107.621 196.833 105.785 197.581 104.38C198.352 102.952 199.406 101.909 200.743 101.252C202.08 100.572 203.61 100.232 205.333 100.232C206.489 100.232 207.52 100.345 208.427 100.572C209.334 100.799 210.104 101.071 210.739 101.388L209.481 104.754C208.778 104.482 208.076 104.255 207.373 104.074C206.67 103.87 205.99 103.768 205.333 103.768C204.313 103.768 203.463 103.995 202.783 104.448C202.126 104.901 201.638 105.581 201.321 106.488C201.004 107.372 200.845 108.494 200.845 109.854C200.845 111.169 201.004 112.268 201.321 113.152C201.661 114.036 202.16 114.705 202.817 115.158C203.474 115.589 204.29 115.804 205.265 115.804C206.308 115.804 207.226 115.679 208.019 115.43C208.812 115.181 209.56 114.841 210.263 114.41V118.116C209.56 118.547 208.801 118.853 207.985 119.034C207.192 119.238 206.194 119.34 204.993 119.34ZM224.236 100.232C224.508 100.232 224.826 100.243 225.188 100.266C225.551 100.289 225.857 100.334 226.106 100.402L225.732 104.38C225.528 104.335 225.256 104.301 224.916 104.278C224.599 104.233 224.316 104.21 224.066 104.21C223.386 104.21 222.729 104.323 222.094 104.55C221.482 104.754 220.927 105.071 220.428 105.502C219.952 105.91 219.567 106.443 219.272 107.1C219 107.757 218.864 108.539 218.864 109.446V119H214.58V100.572H217.878L218.49 103.768H218.694C219.057 103.111 219.51 102.521 220.054 102C220.598 101.456 221.222 101.025 221.924 100.708C222.65 100.391 223.42 100.232 224.236 100.232ZM245.314 109.752C245.314 111.293 245.11 112.653 244.702 113.832C244.294 115.011 243.704 116.019 242.934 116.858C242.186 117.674 241.256 118.297 240.146 118.728C239.058 119.136 237.845 119.34 236.508 119.34C235.238 119.34 234.071 119.136 233.006 118.728C231.94 118.297 231.011 117.674 230.218 116.858C229.447 116.019 228.846 115.011 228.416 113.832C227.985 112.653 227.77 111.293 227.77 109.752C227.77 107.712 228.121 105.989 228.824 104.584C229.526 103.156 230.535 102.079 231.85 101.354C233.187 100.606 234.762 100.232 236.576 100.232C238.298 100.232 239.806 100.606 241.098 101.354C242.412 102.079 243.444 103.156 244.192 104.584C244.94 105.989 245.314 107.712 245.314 109.752ZM232.156 109.752C232.156 111.044 232.303 112.155 232.598 113.084C232.915 113.991 233.391 114.682 234.026 115.158C234.683 115.634 235.522 115.872 236.542 115.872C237.584 115.872 238.423 115.634 239.058 115.158C239.715 114.682 240.191 113.991 240.486 113.084C240.78 112.155 240.928 111.044 240.928 109.752C240.928 108.437 240.769 107.338 240.452 106.454C240.157 105.547 239.681 104.867 239.024 104.414C238.389 103.938 237.562 103.7 236.542 103.7C235 103.7 233.878 104.221 233.176 105.264C232.496 106.307 232.156 107.803 232.156 109.752ZM262.288 113.662C262.288 114.886 261.994 115.929 261.404 116.79C260.815 117.629 259.942 118.263 258.786 118.694C257.653 119.125 256.259 119.34 254.604 119.34C253.312 119.34 252.202 119.249 251.272 119.068C250.343 118.887 249.459 118.603 248.62 118.218V114.58C249.527 115.011 250.536 115.373 251.646 115.668C252.757 115.963 253.788 116.11 254.74 116.11C255.919 116.11 256.769 115.929 257.29 115.566C257.812 115.203 258.072 114.716 258.072 114.104C258.072 113.741 257.97 113.413 257.766 113.118C257.562 112.823 257.166 112.517 256.576 112.2C255.987 111.86 255.092 111.441 253.89 110.942C252.712 110.466 251.726 109.99 250.932 109.514C250.162 109.038 249.572 108.471 249.164 107.814C248.779 107.134 248.586 106.284 248.586 105.264C248.586 103.609 249.244 102.363 250.558 101.524C251.873 100.663 253.607 100.232 255.76 100.232C256.894 100.232 257.959 100.345 258.956 100.572C259.976 100.776 260.996 101.116 262.016 101.592L260.656 104.754C260.09 104.505 259.523 104.289 258.956 104.108C258.412 103.904 257.857 103.745 257.29 103.632C256.746 103.519 256.191 103.462 255.624 103.462C254.695 103.462 253.992 103.609 253.516 103.904C253.04 104.176 252.802 104.561 252.802 105.06C252.802 105.445 252.916 105.785 253.142 106.08C253.392 106.352 253.811 106.635 254.4 106.93C255.012 107.202 255.874 107.565 256.984 108.018C258.095 108.449 259.036 108.902 259.806 109.378C260.6 109.831 261.212 110.398 261.642 111.078C262.073 111.758 262.288 112.619 262.288 113.662ZM278.956 113.662C278.956 114.886 278.662 115.929 278.072 116.79C277.483 117.629 276.61 118.263 275.454 118.694C274.321 119.125 272.927 119.34 271.272 119.34C269.98 119.34 268.87 119.249 267.94 119.068C267.011 118.887 266.127 118.603 265.288 118.218V114.58C266.195 115.011 267.204 115.373 268.314 115.668C269.425 115.963 270.456 116.11 271.408 116.11C272.587 116.11 273.437 115.929 273.958 115.566C274.48 115.203 274.74 114.716 274.74 114.104C274.74 113.741 274.638 113.413 274.434 113.118C274.23 112.823 273.834 112.517 273.244 112.2C272.655 111.86 271.76 111.441 270.558 110.942C269.38 110.466 268.394 109.99 267.6 109.514C266.83 109.038 266.24 108.471 265.832 107.814C265.447 107.134 265.254 106.284 265.254 105.264C265.254 103.609 265.912 102.363 267.226 101.524C268.541 100.663 270.275 100.232 272.428 100.232C273.562 100.232 274.627 100.345 275.624 100.572C276.644 100.776 277.664 101.116 278.684 101.592L277.324 104.754C276.758 104.505 276.191 104.289 275.624 104.108C275.08 103.904 274.525 103.745 273.958 103.632C273.414 103.519 272.859 103.462 272.292 103.462C271.363 103.462 270.66 103.609 270.184 103.904C269.708 104.176 269.47 104.561 269.47 105.06C269.47 105.445 269.584 105.785 269.81 106.08C270.06 106.352 270.479 106.635 271.068 106.93C271.68 107.202 272.542 107.565 273.652 108.018C274.763 108.449 275.704 108.902 276.474 109.378C277.268 109.831 277.88 110.398 278.31 111.078C278.741 111.758 278.956 112.619 278.956 113.662ZM118.763 157.078C118.65 156.647 118.514 156.115 118.355 155.48C118.196 154.823 118.026 154.143 117.845 153.44C117.686 152.737 117.528 152.091 117.369 151.502C117.233 150.913 117.142 150.459 117.097 150.142H116.961C116.893 150.459 116.791 150.913 116.655 151.502C116.519 152.091 116.372 152.737 116.213 153.44C116.054 154.143 115.884 154.823 115.703 155.48C115.544 156.137 115.408 156.681 115.295 157.112L113.153 165H108.461L103.293 146.538H107.611L109.889 155.344C110.048 155.933 110.195 156.602 110.331 157.35C110.49 158.098 110.626 158.823 110.739 159.526C110.852 160.206 110.932 160.761 110.977 161.192H111.113C111.158 160.897 111.215 160.512 111.283 160.036C111.351 159.537 111.43 159.027 111.521 158.506C111.634 157.962 111.736 157.463 111.827 157.01C111.94 156.557 112.031 156.205 112.099 155.956L114.751 146.538H119.443L121.993 155.956C122.106 156.364 122.231 156.897 122.367 157.554C122.503 158.211 122.628 158.869 122.741 159.526C122.854 160.183 122.922 160.727 122.945 161.158H123.081C123.126 160.773 123.206 160.251 123.319 159.594C123.432 158.914 123.568 158.189 123.727 157.418C123.886 156.647 124.056 155.956 124.237 155.344L126.549 146.538H130.799L125.563 165H120.803L118.763 157.078ZM150.386 155.752C150.386 157.293 150.182 158.653 149.774 159.832C149.366 161.011 148.776 162.019 148.006 162.858C147.258 163.674 146.328 164.297 145.218 164.728C144.13 165.136 142.917 165.34 141.58 165.34C140.31 165.34 139.143 165.136 138.078 164.728C137.012 164.297 136.083 163.674 135.29 162.858C134.519 162.019 133.918 161.011 133.488 159.832C133.057 158.653 132.842 157.293 132.842 155.752C132.842 153.712 133.193 151.989 133.896 150.584C134.598 149.156 135.607 148.079 136.922 147.354C138.259 146.606 139.834 146.232 141.648 146.232C143.37 146.232 144.878 146.606 146.17 147.354C147.484 148.079 148.516 149.156 149.264 150.584C150.012 151.989 150.386 153.712 150.386 155.752ZM137.228 155.752C137.228 157.044 137.375 158.155 137.67 159.084C137.987 159.991 138.463 160.682 139.098 161.158C139.755 161.634 140.594 161.872 141.614 161.872C142.656 161.872 143.495 161.634 144.13 161.158C144.787 160.682 145.263 159.991 145.558 159.084C145.852 158.155 146 157.044 146 155.752C146 154.437 145.841 153.338 145.524 152.454C145.229 151.547 144.753 150.867 144.096 150.414C143.461 149.938 142.634 149.7 141.614 149.7C140.072 149.7 138.95 150.221 138.248 151.264C137.568 152.307 137.228 153.803 137.228 155.752ZM164.471 146.232C164.743 146.232 165.06 146.243 165.423 146.266C165.785 146.289 166.091 146.334 166.341 146.402L165.967 150.38C165.763 150.335 165.491 150.301 165.151 150.278C164.833 150.233 164.55 150.21 164.301 150.21C163.621 150.21 162.963 150.323 162.329 150.55C161.717 150.754 161.161 151.071 160.663 151.502C160.187 151.91 159.801 152.443 159.507 153.1C159.235 153.757 159.099 154.539 159.099 155.446V165H154.815V146.572H158.113L158.725 149.768H158.929C159.291 149.111 159.745 148.521 160.289 148C160.833 147.456 161.456 147.025 162.159 146.708C162.884 146.391 163.655 146.232 164.471 146.232ZM174.04 165H169.756V139.16H174.04V165ZM185.604 165.34C183.473 165.34 181.739 164.547 180.402 162.96C179.087 161.351 178.43 158.971 178.43 155.82C178.43 152.669 179.098 150.289 180.436 148.68C181.773 147.048 183.53 146.232 185.706 146.232C186.612 146.232 187.406 146.357 188.086 146.606C188.788 146.833 189.389 147.15 189.888 147.558C190.386 147.966 190.806 148.419 191.146 148.918H191.35C191.282 148.601 191.214 148.113 191.146 147.456C191.078 146.799 191.044 146.187 191.044 145.62V139.16H195.328V165H191.996L191.214 162.586H191.044C190.704 163.085 190.284 163.549 189.786 163.98C189.287 164.388 188.698 164.717 188.018 164.966C187.338 165.215 186.533 165.34 185.604 165.34ZM186.896 161.872C188.482 161.872 189.604 161.419 190.262 160.512C190.919 159.605 191.248 158.234 191.248 156.398V155.854C191.248 153.859 190.93 152.341 190.296 151.298C189.684 150.255 188.528 149.734 186.828 149.734C185.536 149.734 184.538 150.278 183.836 151.366C183.133 152.431 182.782 153.939 182.782 155.888C182.782 157.837 183.133 159.322 183.836 160.342C184.538 161.362 185.558 161.872 186.896 161.872Z" fill="#898989"/>
</svg>
