<svg width="294" height="196" viewBox="0 0 294 196" fill="none" xmlns="http://www.w3.org/2000/svg">
<path d="M48.5019 17.572V36H44.2179V17.572H48.5019ZM46.3599 10.466C46.9945 10.466 47.5499 10.636 48.0259 10.976C48.5019 11.2933 48.7399 11.8713 48.7399 12.71C48.7399 13.526 48.5019 14.1153 48.0259 14.478C47.5499 14.818 46.9945 14.988 46.3599 14.988C45.7025 14.988 45.1359 14.818 44.6599 14.478C44.2065 14.1153 43.9799 13.526 43.9799 12.71C43.9799 11.8713 44.2065 11.2933 44.6599 10.976C45.1359 10.636 45.7025 10.466 46.3599 10.466ZM63.8396 17.232C65.9023 17.232 67.5116 17.7647 68.6676 18.83C69.8463 19.8953 70.4356 21.618 70.4356 23.998V36H66.1516V24.848C66.1516 23.4653 65.8796 22.434 65.3356 21.754C64.7916 21.0513 63.9303 20.7 62.7516 20.7C61.0289 20.7 59.8503 21.244 59.2156 22.332C58.5809 23.3973 58.2636 24.95 58.2636 26.99V36H53.9796V17.572H57.2776L57.8896 19.986H58.1276C58.5356 19.3513 59.0343 18.83 59.6236 18.422C60.2129 18.014 60.8703 17.7193 61.5956 17.538C62.3209 17.334 63.0689 17.232 63.8396 17.232ZM85.348 20.802H80.894V36H76.61V20.802H73.652V18.762L76.61 17.538V16.28C76.61 14.6933 76.8594 13.4467 77.358 12.54C77.8567 11.6333 78.582 10.9873 79.534 10.602C80.486 10.194 81.608 9.99 82.9 9.99C83.8067 9.99 84.6227 10.0693 85.348 10.228C86.0734 10.364 86.674 10.5227 87.15 10.704L86.062 13.9C85.6767 13.7867 85.246 13.6847 84.77 13.594C84.3167 13.4807 83.818 13.424 83.274 13.424C82.458 13.424 81.8574 13.6847 81.472 14.206C81.0867 14.7273 80.894 15.4527 80.894 16.382V17.572H85.348V20.802ZM92.692 36H88.408V10.16H92.692V36ZM114.527 17.572V36H111.161L110.583 33.62H110.379C109.994 34.2547 109.495 34.776 108.883 35.184C108.271 35.5693 107.602 35.8527 106.877 36.034C106.152 36.238 105.404 36.34 104.633 36.34C103.273 36.34 102.094 36.102 101.097 35.626C100.1 35.15 99.3403 34.4247 98.8189 33.45C98.2976 32.4527 98.0369 31.172 98.0369 29.608V17.572H102.321V28.758C102.321 30.118 102.593 31.1493 103.137 31.852C103.681 32.532 104.542 32.872 105.721 32.872C106.877 32.872 107.784 32.634 108.441 32.158C109.098 31.6593 109.563 30.9453 109.835 30.016C110.107 29.0867 110.243 27.942 110.243 26.582V17.572H114.527ZM127.399 17.232C129.054 17.232 130.471 17.572 131.649 18.252C132.851 18.9093 133.78 19.8613 134.437 21.108C135.095 22.332 135.423 23.828 135.423 25.596V27.772H123.251C123.297 29.4493 123.761 30.7527 124.645 31.682C125.529 32.5887 126.753 33.042 128.317 33.042C129.519 33.042 130.584 32.9287 131.513 32.702C132.465 32.4527 133.44 32.1013 134.437 31.648V35.082C133.531 35.5127 132.59 35.83 131.615 36.034C130.641 36.238 129.473 36.34 128.113 36.34C126.323 36.34 124.725 36 123.319 35.32C121.937 34.6173 120.849 33.5633 120.055 32.158C119.285 30.7527 118.899 29.0073 118.899 26.922C118.899 24.814 119.251 23.046 119.953 21.618C120.679 20.1673 121.676 19.0793 122.945 18.354C124.215 17.606 125.699 17.232 127.399 17.232ZM127.399 20.394C126.266 20.394 125.337 20.768 124.611 21.516C123.909 22.2413 123.489 23.3293 123.353 24.78H131.275C131.275 23.9187 131.128 23.1593 130.833 22.502C130.561 21.8447 130.142 21.3347 129.575 20.972C129.009 20.5867 128.283 20.394 127.399 20.394ZM149.603 17.232C151.666 17.232 153.275 17.7647 154.431 18.83C155.61 19.8953 156.199 21.618 156.199 23.998V36H151.915V24.848C151.915 23.4653 151.643 22.434 151.099 21.754C150.555 21.0513 149.694 20.7 148.515 20.7C146.793 20.7 145.614 21.244 144.979 22.332C144.345 23.3973 144.027 24.95 144.027 26.99V36H139.743V17.572H143.041L143.653 19.986H143.891C144.299 19.3513 144.798 18.83 145.387 18.422C145.977 18.014 146.634 17.7193 147.359 17.538C148.085 17.334 148.833 17.232 149.603 17.232ZM168.698 32.906C169.242 32.906 169.763 32.8607 170.262 32.77C170.76 32.6567 171.225 32.532 171.656 32.396V35.592C171.202 35.796 170.613 35.966 169.888 36.102C169.162 36.2607 168.403 36.34 167.61 36.34C166.567 36.34 165.615 36.17 164.754 35.83C163.915 35.4673 163.235 34.8553 162.714 33.994C162.215 33.1327 161.966 31.9313 161.966 30.39V20.802H159.484V18.932L162.204 17.436L163.564 13.526H166.25V17.572H171.486V20.802H166.25V30.356C166.25 31.2173 166.476 31.8633 166.93 32.294C167.383 32.702 167.972 32.906 168.698 32.906ZM179.654 17.572V36H175.37V17.572H179.654ZM177.512 10.466C178.147 10.466 178.702 10.636 179.178 10.976C179.654 11.2933 179.892 11.8713 179.892 12.71C179.892 13.526 179.654 14.1153 179.178 14.478C178.702 14.818 178.147 14.988 177.512 14.988C176.855 14.988 176.288 14.818 175.812 14.478C175.359 14.1153 175.132 13.526 175.132 12.71C175.132 11.8713 175.359 11.2933 175.812 10.976C176.288 10.636 176.855 10.466 177.512 10.466ZM192.476 17.232C194.856 17.232 196.658 17.7533 197.882 18.796C199.129 19.816 199.752 21.4253 199.752 23.624V36H196.726L195.876 33.45H195.74C195.219 34.1073 194.675 34.6627 194.108 35.116C193.564 35.5467 192.929 35.8527 192.204 36.034C191.501 36.238 190.64 36.34 189.62 36.34C188.532 36.34 187.546 36.136 186.662 35.728C185.801 35.32 185.121 34.6967 184.622 33.858C184.123 32.9967 183.874 31.92 183.874 30.628C183.874 28.724 184.565 27.296 185.948 26.344C187.353 25.3693 189.473 24.8367 192.306 24.746L195.502 24.644V23.726C195.502 22.5473 195.219 21.7087 194.652 21.21C194.085 20.7113 193.292 20.462 192.272 20.462C191.343 20.462 190.447 20.598 189.586 20.87C188.725 21.142 187.886 21.4593 187.07 21.822L185.71 18.83C186.617 18.354 187.648 17.9687 188.804 17.674C189.983 17.3793 191.207 17.232 192.476 17.232ZM193.258 27.364C191.377 27.432 190.073 27.7607 189.348 28.35C188.623 28.9167 188.26 29.6873 188.26 30.662C188.26 31.5233 188.521 32.1467 189.042 32.532C189.563 32.9173 190.232 33.11 191.048 33.11C192.295 33.11 193.349 32.7587 194.21 32.056C195.071 31.3307 195.502 30.2653 195.502 28.86V27.296L193.258 27.364ZM209.404 36H205.12V10.16H209.404V36ZM227.998 17.572V36H223.714V17.572H227.998ZM225.856 10.466C226.491 10.466 227.046 10.636 227.522 10.976C227.998 11.2933 228.236 11.8713 228.236 12.71C228.236 13.526 227.998 14.1153 227.522 14.478C227.046 14.818 226.491 14.988 225.856 14.988C225.199 14.988 224.632 14.818 224.156 14.478C223.703 14.1153 223.476 13.526 223.476 12.71C223.476 11.8713 223.703 11.2933 224.156 10.976C224.632 10.636 225.199 10.466 225.856 10.466ZM243.336 17.232C245.398 17.232 247.008 17.7647 248.164 18.83C249.342 19.8953 249.932 21.618 249.932 23.998V36H245.648V24.848C245.648 23.4653 245.376 22.434 244.832 21.754C244.288 21.0513 243.426 20.7 242.248 20.7C240.525 20.7 239.346 21.244 238.712 22.332C238.077 23.3973 237.76 24.95 237.76 26.99V36H233.476V17.572H236.774L237.386 19.986H237.624C238.032 19.3513 238.53 18.83 239.12 18.422C239.709 18.014 240.366 17.7193 241.092 17.538C241.817 17.334 242.565 17.232 243.336 17.232ZM78.9568 174.34C77.2115 174.34 75.6928 174.011 74.4008 173.354C73.1315 172.674 72.1455 171.643 71.4428 170.26C70.7628 168.855 70.4228 167.064 70.4228 164.888C70.4228 162.621 70.7968 160.785 71.5448 159.38C72.3155 157.952 73.3695 156.909 74.7068 156.252C76.0442 155.572 77.5742 155.232 79.2968 155.232C80.4528 155.232 81.4842 155.345 82.3908 155.572C83.2975 155.799 84.0682 156.071 84.7028 156.388L83.4448 159.754C82.7422 159.482 82.0395 159.255 81.3368 159.074C80.6342 158.87 79.9542 158.768 79.2968 158.768C78.2768 158.768 77.4268 158.995 76.7468 159.448C76.0895 159.901 75.6022 160.581 75.2848 161.488C74.9675 162.372 74.8088 163.494 74.8088 164.854C74.8088 166.169 74.9675 167.268 75.2848 168.152C75.6248 169.036 76.1235 169.705 76.7808 170.158C77.4382 170.589 78.2542 170.804 79.2288 170.804C80.2715 170.804 81.1895 170.679 81.9828 170.43C82.7762 170.181 83.5242 169.841 84.2268 169.41V173.116C83.5242 173.547 82.7648 173.853 81.9488 174.034C81.1555 174.238 80.1582 174.34 78.9568 174.34ZM105 164.752C105 166.293 104.796 167.653 104.388 168.832C103.98 170.011 103.391 171.019 102.62 171.858C101.872 172.674 100.943 173.297 99.832 173.728C98.744 174.136 97.5314 174.34 96.194 174.34C94.9247 174.34 93.7574 174.136 92.692 173.728C91.6267 173.297 90.6974 172.674 89.904 171.858C89.1334 171.019 88.5327 170.011 88.102 168.832C87.6714 167.653 87.456 166.293 87.456 164.752C87.456 162.712 87.8074 160.989 88.51 159.584C89.2127 158.156 90.2214 157.079 91.536 156.354C92.8734 155.606 94.4487 155.232 96.262 155.232C97.9847 155.232 99.492 155.606 100.784 156.354C102.099 157.079 103.13 158.156 103.878 159.584C104.626 160.989 105 162.712 105 164.752ZM91.842 164.752C91.842 166.044 91.9894 167.155 92.284 168.084C92.6014 168.991 93.0774 169.682 93.712 170.158C94.3694 170.634 95.208 170.872 96.228 170.872C97.2707 170.872 98.1094 170.634 98.744 170.158C99.4014 169.682 99.8774 168.991 100.172 168.084C100.467 167.155 100.614 166.044 100.614 164.752C100.614 163.437 100.455 162.338 100.138 161.454C99.8434 160.547 99.3674 159.867 98.71 159.414C98.0754 158.938 97.248 158.7 96.228 158.7C94.6867 158.7 93.5647 159.221 92.862 160.264C92.182 161.307 91.842 162.803 91.842 164.752ZM125.783 155.572V174H122.417L121.839 171.62H121.635C121.249 172.255 120.751 172.776 120.139 173.184C119.527 173.569 118.858 173.853 118.133 174.034C117.407 174.238 116.659 174.34 115.889 174.34C114.529 174.34 113.35 174.102 112.353 173.626C111.355 173.15 110.596 172.425 110.075 171.45C109.553 170.453 109.293 169.172 109.293 167.608V155.572H113.577V166.758C113.577 168.118 113.849 169.149 114.393 169.852C114.937 170.532 115.798 170.872 116.977 170.872C118.133 170.872 119.039 170.634 119.697 170.158C120.354 169.659 120.819 168.945 121.091 168.016C121.363 167.087 121.499 165.942 121.499 164.582V155.572H125.783ZM141.103 155.232C143.166 155.232 144.775 155.765 145.931 156.83C147.11 157.895 147.699 159.618 147.699 161.998V174H143.415V162.848C143.415 161.465 143.143 160.434 142.599 159.754C142.055 159.051 141.194 158.7 140.015 158.7C138.293 158.7 137.114 159.244 136.479 160.332C135.845 161.397 135.527 162.95 135.527 164.99V174H131.243V155.572H134.541L135.153 157.986H135.391C135.799 157.351 136.298 156.83 136.887 156.422C137.477 156.014 138.134 155.719 138.859 155.538C139.585 155.334 140.333 155.232 141.103 155.232ZM160.198 170.906C160.742 170.906 161.263 170.861 161.762 170.77C162.26 170.657 162.725 170.532 163.156 170.396V173.592C162.702 173.796 162.113 173.966 161.388 174.102C160.662 174.261 159.903 174.34 159.11 174.34C158.067 174.34 157.115 174.17 156.254 173.83C155.415 173.467 154.735 172.855 154.214 171.994C153.715 171.133 153.466 169.931 153.466 168.39V158.802H150.984V156.932L153.704 155.436L155.064 151.526H157.75V155.572H162.986V158.802H157.75V168.356C157.75 169.217 157.976 169.863 158.43 170.294C158.883 170.702 159.472 170.906 160.198 170.906ZM176.526 155.232C176.798 155.232 177.116 155.243 177.478 155.266C177.841 155.289 178.147 155.334 178.396 155.402L178.022 159.38C177.818 159.335 177.546 159.301 177.206 159.278C176.889 159.233 176.606 159.21 176.356 159.21C175.676 159.21 175.019 159.323 174.384 159.55C173.772 159.754 173.217 160.071 172.718 160.502C172.242 160.91 171.857 161.443 171.562 162.1C171.29 162.757 171.154 163.539 171.154 164.446V174H166.87V155.572H170.168L170.78 158.768H170.984C171.347 158.111 171.8 157.521 172.344 157C172.888 156.456 173.512 156.025 174.214 155.708C174.94 155.391 175.71 155.232 176.526 155.232ZM186.096 155.572V174H181.812V155.572H186.096ZM183.954 148.466C184.588 148.466 185.144 148.636 185.62 148.976C186.096 149.293 186.334 149.871 186.334 150.71C186.334 151.526 186.096 152.115 185.62 152.478C185.144 152.818 184.588 152.988 183.954 152.988C183.296 152.988 182.73 152.818 182.254 152.478C181.8 152.115 181.574 151.526 181.574 150.71C181.574 149.871 181.8 149.293 182.254 148.976C182.73 148.636 183.296 148.466 183.954 148.466ZM198.985 155.232C200.64 155.232 202.057 155.572 203.235 156.252C204.437 156.909 205.366 157.861 206.023 159.108C206.681 160.332 207.009 161.828 207.009 163.596V165.772H194.837C194.883 167.449 195.347 168.753 196.231 169.682C197.115 170.589 198.339 171.042 199.903 171.042C201.105 171.042 202.17 170.929 203.099 170.702C204.051 170.453 205.026 170.101 206.023 169.648V173.082C205.117 173.513 204.176 173.83 203.201 174.034C202.227 174.238 201.059 174.34 199.699 174.34C197.909 174.34 196.311 174 194.905 173.32C193.523 172.617 192.435 171.563 191.641 170.158C190.871 168.753 190.485 167.007 190.485 164.922C190.485 162.814 190.837 161.046 191.539 159.618C192.265 158.167 193.262 157.079 194.531 156.354C195.801 155.606 197.285 155.232 198.985 155.232ZM198.985 158.394C197.852 158.394 196.923 158.768 196.197 159.516C195.495 160.241 195.075 161.329 194.939 162.78H202.861C202.861 161.919 202.714 161.159 202.419 160.502C202.147 159.845 201.728 159.335 201.161 158.972C200.595 158.587 199.869 158.394 198.985 158.394ZM223.875 168.662C223.875 169.886 223.581 170.929 222.991 171.79C222.402 172.629 221.529 173.263 220.373 173.694C219.24 174.125 217.846 174.34 216.191 174.34C214.899 174.34 213.789 174.249 212.859 174.068C211.93 173.887 211.046 173.603 210.207 173.218V169.58C211.114 170.011 212.123 170.373 213.233 170.668C214.344 170.963 215.375 171.11 216.327 171.11C217.506 171.11 218.356 170.929 218.877 170.566C219.399 170.203 219.659 169.716 219.659 169.104C219.659 168.741 219.557 168.413 219.353 168.118C219.149 167.823 218.753 167.517 218.163 167.2C217.574 166.86 216.679 166.441 215.477 165.942C214.299 165.466 213.313 164.99 212.519 164.514C211.749 164.038 211.159 163.471 210.751 162.814C210.366 162.134 210.173 161.284 210.173 160.264C210.173 158.609 210.831 157.363 212.145 156.524C213.46 155.663 215.194 155.232 217.347 155.232C218.481 155.232 219.546 155.345 220.543 155.572C221.563 155.776 222.583 156.116 223.603 156.592L222.243 159.754C221.677 159.505 221.11 159.289 220.543 159.108C219.999 158.904 219.444 158.745 218.877 158.632C218.333 158.519 217.778 158.462 217.211 158.462C216.282 158.462 215.579 158.609 215.103 158.904C214.627 159.176 214.389 159.561 214.389 160.06C214.389 160.445 214.503 160.785 214.729 161.08C214.979 161.352 215.398 161.635 215.987 161.93C216.599 162.202 217.461 162.565 218.571 163.018C219.682 163.449 220.623 163.902 221.393 164.378C222.187 164.831 222.799 165.398 223.229 166.078C223.66 166.758 223.875 167.619 223.875 168.662Z" fill="#898989"/>
<path d="M100.58 129H87.9804V84.5C87.9804 83.0333 87.9804 81.5333 87.9804 80C88.0471 78.4667 88.1138 76.9333 88.1804 75.4C88.2471 73.8 88.3138 72.3333 88.3804 71C87.7138 71.6667 86.8804 72.4667 85.8804 73.4C84.8804 74.2667 83.8471 75.1667 82.7804 76.1L74.7804 82.5L68.4804 74.7L90.0804 57.6H100.58V129ZM174.107 113.7H164.807V129H152.407V113.7H120.607V104.3L152.707 57.4H164.807V103.4H174.107V113.7ZM152.407 87.4C152.407 86 152.407 84.5667 152.407 83.1C152.474 81.5667 152.54 80.0667 152.607 78.6C152.674 77.1333 152.74 75.8 152.807 74.6C152.874 73.4 152.94 72.4667 153.007 71.8H152.607C152.007 73.0667 151.34 74.4 150.607 75.8C149.94 77.1333 149.174 78.4 148.307 79.6L132.107 103.4H152.407V87.4ZM228.934 93.2C228.934 99 228.5 104.167 227.634 108.7C226.767 113.233 225.334 117.1 223.334 120.3C221.4 123.433 218.867 125.833 215.734 127.5C212.667 129.167 208.9 130 204.434 130C198.834 130 194.234 128.533 190.634 125.6C187.034 122.667 184.367 118.467 182.634 113C180.9 107.467 180.034 100.867 180.034 93.2C180.034 85.5333 180.834 78.9667 182.434 73.5C184.034 68.0333 186.6 63.8333 190.134 60.9C193.734 57.9667 198.5 56.5 204.434 56.5C210.034 56.5 214.634 57.9667 218.234 60.9C221.834 63.7667 224.5 67.9667 226.234 73.5C228.034 78.9667 228.934 85.5333 228.934 93.2ZM192.734 93.3C192.734 99.1 193.1 103.967 193.834 107.9C194.567 111.767 195.767 114.7 197.434 116.7C199.167 118.633 201.5 119.6 204.434 119.6C207.367 119.6 209.667 118.633 211.334 116.7C213.067 114.767 214.3 111.833 215.034 107.9C215.834 103.967 216.234 99.1 216.234 93.3C216.234 87.4333 215.834 82.5667 215.034 78.7C214.3 74.7667 213.067 71.8333 211.334 69.9C209.667 67.9 207.367 66.9 204.434 66.9C201.5 66.9 199.167 67.9 197.434 69.9C195.767 71.8333 194.567 74.7333 193.834 78.6C193.1 82.4667 192.734 87.3667 192.734 93.3Z" fill="#FABD03"/>
</svg>
