<svg width="329" height="120" viewBox="0 0 329 120" fill="none" xmlns="http://www.w3.org/2000/svg">
<path d="M56.6688 73H7.76875V63.7L25.9688 45.3C29.5688 41.6333 32.5021 38.5 34.7688 35.9C37.1021 33.2333 38.8021 30.7667 39.8688 28.5C41.0021 26.2333 41.5688 23.7667 41.5688 21.1C41.5688 17.8333 40.6354 15.4 38.7688 13.8C36.9021 12.1333 34.4354 11.3 31.3688 11.3C28.3688 11.3 25.5688 11.9333 22.9688 13.2C20.3688 14.4 17.6688 16.1333 14.8688 18.4L7.96875 10.1C9.96875 8.36666 12.1021 6.8 14.3688 5.39999C16.6354 3.93333 19.2021 2.76666 22.0688 1.9C24.9354 1.03333 28.2688 0.599996 32.0688 0.599996C36.6688 0.599996 40.6021 1.43333 43.8688 3.09999C47.2021 4.7 49.7688 6.93333 51.5688 9.8C53.3688 12.6667 54.2688 16 54.2688 19.8C54.2688 22.7333 53.8354 25.4667 52.9688 28C52.1021 30.4667 50.8354 32.9 49.1688 35.3C47.5021 37.7 45.4688 40.1333 43.0688 42.6C40.6688 45.0667 37.9688 47.7333 34.9688 50.6L23.6688 61.5V62.1H56.6688V73ZM81.8953 62.5C81.2953 64.8333 80.5286 67.3667 79.5953 70.1C78.662 72.7667 77.662 75.4333 76.5953 78.1C75.5286 80.8333 74.4286 83.4333 73.2953 85.9H64.1953C64.862 83.3 65.4953 80.5333 66.0953 77.6C66.6953 74.7333 67.262 71.9 67.7953 69.1C68.3286 66.3 68.762 63.7333 69.0953 61.4H81.1953L81.8953 62.5ZM141.625 37.2C141.625 43 141.192 48.1667 140.325 52.7C139.458 57.2333 138.025 61.1 136.025 64.3C134.092 67.4333 131.558 69.8333 128.425 71.5C125.358 73.1667 121.592 74 117.125 74C111.525 74 106.925 72.5333 103.325 69.6C99.725 66.6667 97.0583 62.4667 95.325 57C93.5917 51.4667 92.725 44.8667 92.725 37.2C92.725 29.5333 93.525 22.9667 95.125 17.5C96.725 12.0333 99.2917 7.83333 102.825 4.89999C106.425 1.96666 111.192 0.499998 117.125 0.499998C122.725 0.499998 127.325 1.96666 130.925 4.89999C134.525 7.76666 137.192 11.9667 138.925 17.5C140.725 22.9667 141.625 29.5333 141.625 37.2ZM105.425 37.3C105.425 43.1 105.792 47.9667 106.525 51.9C107.258 55.7667 108.458 58.7 110.125 60.7C111.858 62.6333 114.192 63.6 117.125 63.6C120.058 63.6 122.358 62.6333 124.025 60.7C125.758 58.7667 126.992 55.8333 127.725 51.9C128.525 47.9667 128.925 43.1 128.925 37.3C128.925 31.4333 128.525 26.5667 127.725 22.7C126.992 18.7667 125.758 15.8333 124.025 13.9C122.358 11.9 120.058 10.9 117.125 10.9C114.192 10.9 111.858 11.9 110.125 13.9C108.458 15.8333 107.258 18.7333 106.525 22.6C105.792 26.4667 105.425 31.3667 105.425 37.3ZM198.852 37.2C198.852 43 198.418 48.1667 197.552 52.7C196.685 57.2333 195.252 61.1 193.252 64.3C191.318 67.4333 188.785 69.8333 185.652 71.5C182.585 73.1667 178.818 74 174.352 74C168.752 74 164.152 72.5333 160.552 69.6C156.952 66.6667 154.285 62.4667 152.552 57C150.818 51.4667 149.952 44.8667 149.952 37.2C149.952 29.5333 150.752 22.9667 152.352 17.5C153.952 12.0333 156.518 7.83333 160.052 4.89999C163.652 1.96666 168.418 0.499998 174.352 0.499998C179.952 0.499998 184.552 1.96666 188.152 4.89999C191.752 7.76666 194.418 11.9667 196.152 17.5C197.952 22.9667 198.852 29.5333 198.852 37.2ZM162.652 37.3C162.652 43.1 163.018 47.9667 163.752 51.9C164.485 55.7667 165.685 58.7 167.352 60.7C169.085 62.6333 171.418 63.6 174.352 63.6C177.285 63.6 179.585 62.6333 181.252 60.7C182.985 58.7667 184.218 55.8333 184.952 51.9C185.752 47.9667 186.152 43.1 186.152 37.3C186.152 31.4333 185.752 26.5667 184.952 22.7C184.218 18.7667 182.985 15.8333 181.252 13.9C179.585 11.9 177.285 10.9 174.352 10.9C171.418 10.9 169.085 11.9 167.352 13.9C165.685 15.8333 164.485 18.7333 163.752 22.6C163.018 26.4667 162.652 31.3667 162.652 37.3ZM256.078 37.2C256.078 43 255.645 48.1667 254.778 52.7C253.911 57.2333 252.478 61.1 250.478 64.3C248.545 67.4333 246.011 69.8333 242.878 71.5C239.811 73.1667 236.045 74 231.578 74C225.978 74 221.378 72.5333 217.778 69.6C214.178 66.6667 211.511 62.4667 209.778 57C208.045 51.4667 207.178 44.8667 207.178 37.2C207.178 29.5333 207.978 22.9667 209.578 17.5C211.178 12.0333 213.745 7.83333 217.278 4.89999C220.878 1.96666 225.645 0.499998 231.578 0.499998C237.178 0.499998 241.778 1.96666 245.378 4.89999C248.978 7.76666 251.645 11.9667 253.378 17.5C255.178 22.9667 256.078 29.5333 256.078 37.2ZM219.878 37.3C219.878 43.1 220.245 47.9667 220.978 51.9C221.711 55.7667 222.911 58.7 224.578 60.7C226.311 62.6333 228.645 63.6 231.578 63.6C234.511 63.6 236.811 62.6333 238.478 60.7C240.211 58.7667 241.445 55.8333 242.178 51.9C242.978 47.9667 243.378 43.1 243.378 37.3C243.378 31.4333 242.978 26.5667 242.178 22.7C241.445 18.7667 240.211 15.8333 238.478 13.9C236.811 11.9 234.511 10.9 231.578 10.9C228.645 10.9 226.311 11.9 224.578 13.9C222.911 15.8333 221.711 18.7333 220.978 22.6C220.245 26.4667 219.878 31.3667 219.878 37.3ZM293.505 33.1H312.805V42.4H293.505V61.9H284.105V42.4H264.905V33.1H284.105V13.4H293.505V33.1Z" fill="#4286F5"/>
<path d="M16.2388 112.37C16.2388 113.798 15.8875 115.033 15.1848 116.076C14.4821 117.119 13.4621 117.923 12.1248 118.49C10.8101 119.057 9.2348 119.34 7.3988 119.34C6.5148 119.34 5.6648 119.283 4.8488 119.17C4.05546 119.079 3.29613 118.932 2.5708 118.728C1.86813 118.524 1.2108 118.275 0.598797 117.98V113.9C1.6188 114.353 2.7408 114.773 3.9648 115.158C5.1888 115.521 6.43546 115.702 7.7048 115.702C8.67946 115.702 9.4728 115.577 10.0848 115.328C10.7195 115.056 11.1841 114.693 11.4788 114.24C11.7735 113.764 11.9208 113.22 11.9208 112.608C11.9208 111.928 11.7281 111.35 11.3428 110.874C10.9575 110.398 10.3908 109.956 9.6428 109.548C8.8948 109.14 7.96546 108.709 6.8548 108.256C6.1068 107.939 5.37013 107.587 4.6448 107.202C3.94213 106.794 3.30746 106.307 2.7408 105.74C2.17413 105.173 1.7208 104.505 1.3808 103.734C1.0408 102.963 0.870797 102.057 0.870797 101.014C0.870797 99.6313 1.19946 98.4413 1.8568 97.444C2.5368 96.4467 3.47746 95.6873 4.6788 95.166C5.9028 94.6447 7.31946 94.384 8.9288 94.384C10.2208 94.384 11.4335 94.52 12.5668 94.792C13.7001 95.064 14.8221 95.4493 15.9328 95.948L14.5388 99.45C13.5415 99.0193 12.5781 98.6793 11.6488 98.43C10.7195 98.1807 9.76746 98.056 8.7928 98.056C8.02213 98.056 7.3648 98.1807 6.8208 98.43C6.2768 98.6567 5.8688 98.9853 5.5968 99.416C5.3248 99.8467 5.1888 100.345 5.1888 100.912C5.1888 101.569 5.3588 102.125 5.6988 102.578C6.0388 103.031 6.56013 103.462 7.2628 103.87C7.98813 104.255 8.91746 104.697 10.0508 105.196C11.3655 105.763 12.4761 106.352 13.3828 106.964C14.2895 107.576 14.9921 108.313 15.4908 109.174C15.9895 110.035 16.2388 111.101 16.2388 112.37ZM27.5542 115.906C28.0982 115.906 28.6195 115.861 29.1182 115.77C29.6168 115.657 30.0815 115.532 30.5122 115.396V118.592C30.0588 118.796 29.4695 118.966 28.7442 119.102C28.0188 119.261 27.2595 119.34 26.4662 119.34C25.4235 119.34 24.4715 119.17 23.6102 118.83C22.7715 118.467 22.0915 117.855 21.5702 116.994C21.0715 116.133 20.8222 114.931 20.8222 113.39V103.802H18.3402V101.932L21.0602 100.436L22.4202 96.526H25.1062V100.572H30.3422V103.802H25.1062V113.356C25.1062 114.217 25.3328 114.863 25.7862 115.294C26.2395 115.702 26.8288 115.906 27.5542 115.906ZM50.5807 100.572V119H47.2147L46.6367 116.62H46.4327C46.0473 117.255 45.5487 117.776 44.9367 118.184C44.3247 118.569 43.656 118.853 42.9307 119.034C42.2053 119.238 41.4573 119.34 40.6867 119.34C39.3267 119.34 38.148 119.102 37.1507 118.626C36.1533 118.15 35.394 117.425 34.8727 116.45C34.3513 115.453 34.0907 114.172 34.0907 112.608V100.572H38.3747V111.758C38.3747 113.118 38.6467 114.149 39.1907 114.852C39.7347 115.532 40.596 115.872 41.7747 115.872C42.9307 115.872 43.8373 115.634 44.4947 115.158C45.152 114.659 45.6167 113.945 45.8887 113.016C46.1607 112.087 46.2967 110.942 46.2967 109.582V100.572H50.5807ZM62.1271 119.34C59.9964 119.34 58.2624 118.547 56.9251 116.96C55.6104 115.351 54.9531 112.971 54.9531 109.82C54.9531 106.669 55.6218 104.289 56.9591 102.68C58.2964 101.048 60.0531 100.232 62.2291 100.232C63.1358 100.232 63.9291 100.357 64.6091 100.606C65.3118 100.833 65.9124 101.15 66.4111 101.558C66.9098 101.966 67.3291 102.419 67.6691 102.918H67.8731C67.8051 102.601 67.7371 102.113 67.6691 101.456C67.6011 100.799 67.5671 100.187 67.5671 99.62V93.16H71.8511V119H68.5191L67.7371 116.586H67.5671C67.2271 117.085 66.8078 117.549 66.3091 117.98C65.8104 118.388 65.2211 118.717 64.5411 118.966C63.8611 119.215 63.0564 119.34 62.1271 119.34ZM63.4191 115.872C65.0058 115.872 66.1278 115.419 66.7851 114.512C67.4424 113.605 67.7711 112.234 67.7711 110.398V109.854C67.7711 107.859 67.4538 106.341 66.8191 105.298C66.2071 104.255 65.0511 103.734 63.3511 103.734C62.0591 103.734 61.0618 104.278 60.3591 105.366C59.6564 106.431 59.3051 107.939 59.3051 109.888C59.3051 111.837 59.6564 113.322 60.3591 114.342C61.0618 115.362 62.0818 115.872 63.4191 115.872ZM84.7363 100.232C86.391 100.232 87.8076 100.572 88.9863 101.252C90.1876 101.909 91.117 102.861 91.7743 104.108C92.4316 105.332 92.7603 106.828 92.7603 108.596V110.772H80.5883C80.6336 112.449 81.0983 113.753 81.9823 114.682C82.8663 115.589 84.0903 116.042 85.6543 116.042C86.8556 116.042 87.921 115.929 88.8503 115.702C89.8023 115.453 90.777 115.101 91.7743 114.648V118.082C90.8676 118.513 89.927 118.83 88.9523 119.034C87.9776 119.238 86.8103 119.34 85.4503 119.34C83.6596 119.34 82.0616 119 80.6563 118.32C79.2736 117.617 78.1856 116.563 77.3923 115.158C76.6216 113.753 76.2363 112.007 76.2363 109.922C76.2363 107.814 76.5876 106.046 77.2903 104.618C78.0156 103.167 79.013 102.079 80.2823 101.354C81.5516 100.606 83.0363 100.232 84.7363 100.232ZM84.7363 103.394C83.603 103.394 82.6736 103.768 81.9483 104.516C81.2456 105.241 80.8263 106.329 80.6903 107.78H88.6123C88.6123 106.919 88.465 106.159 88.1703 105.502C87.8983 104.845 87.479 104.335 86.9123 103.972C86.3456 103.587 85.6203 103.394 84.7363 103.394ZM106.94 100.232C109.003 100.232 110.612 100.765 111.768 101.83C112.947 102.895 113.536 104.618 113.536 106.998V119H109.252V107.848C109.252 106.465 108.98 105.434 108.436 104.754C107.892 104.051 107.031 103.7 105.852 103.7C104.13 103.7 102.951 104.244 102.316 105.332C101.682 106.397 101.364 107.95 101.364 109.99V119H97.0802V100.572H100.378L100.99 102.986H101.228C101.636 102.351 102.135 101.83 102.724 101.422C103.314 101.014 103.971 100.719 104.696 100.538C105.422 100.334 106.17 100.232 106.94 100.232ZM126.035 115.906C126.579 115.906 127.1 115.861 127.599 115.77C128.097 115.657 128.562 115.532 128.993 115.396V118.592C128.539 118.796 127.95 118.966 127.225 119.102C126.499 119.261 125.74 119.34 124.947 119.34C123.904 119.34 122.952 119.17 122.091 118.83C121.252 118.467 120.572 117.855 120.051 116.994C119.552 116.133 119.303 114.931 119.303 113.39V103.802H116.821V101.932L119.541 100.436L120.901 96.526H123.587V100.572H128.823V103.802H123.587V113.356C123.587 114.217 123.813 114.863 124.267 115.294C124.72 115.702 125.309 115.906 126.035 115.906ZM145.253 113.662C145.253 114.886 144.958 115.929 144.369 116.79C143.78 117.629 142.907 118.263 141.751 118.694C140.618 119.125 139.224 119.34 137.569 119.34C136.277 119.34 135.166 119.249 134.237 119.068C133.308 118.887 132.424 118.603 131.585 118.218V114.58C132.492 115.011 133.5 115.373 134.611 115.668C135.722 115.963 136.753 116.11 137.705 116.11C138.884 116.11 139.734 115.929 140.255 115.566C140.776 115.203 141.037 114.716 141.037 114.104C141.037 113.741 140.935 113.413 140.731 113.118C140.527 112.823 140.13 112.517 139.541 112.2C138.952 111.86 138.056 111.441 136.855 110.942C135.676 110.466 134.69 109.99 133.897 109.514C133.126 109.038 132.537 108.471 132.129 107.814C131.744 107.134 131.551 106.284 131.551 105.264C131.551 103.609 132.208 102.363 133.523 101.524C134.838 100.663 136.572 100.232 138.725 100.232C139.858 100.232 140.924 100.345 141.921 100.572C142.941 100.776 143.961 101.116 144.981 101.592L143.621 104.754C143.054 104.505 142.488 104.289 141.921 104.108C141.377 103.904 140.822 103.745 140.255 103.632C139.711 103.519 139.156 103.462 138.589 103.462C137.66 103.462 136.957 103.609 136.481 103.904C136.005 104.176 135.767 104.561 135.767 105.06C135.767 105.445 135.88 105.785 136.107 106.08C136.356 106.352 136.776 106.635 137.365 106.93C137.977 107.202 138.838 107.565 139.949 108.018C141.06 108.449 142 108.902 142.771 109.378C143.564 109.831 144.176 110.398 144.607 111.078C145.038 111.758 145.253 112.619 145.253 113.662ZM162.491 100.572V119H158.207V100.572H162.491ZM160.349 93.466C160.984 93.466 161.539 93.636 162.015 93.976C162.491 94.2933 162.729 94.8713 162.729 95.71C162.729 96.526 162.491 97.1153 162.015 97.478C161.539 97.818 160.984 97.988 160.349 97.988C159.692 97.988 159.125 97.818 158.649 97.478C158.196 97.1153 157.969 96.526 157.969 95.71C157.969 94.8713 158.196 94.2933 158.649 93.976C159.125 93.636 159.692 93.466 160.349 93.466ZM177.829 100.232C179.892 100.232 181.501 100.765 182.657 101.83C183.836 102.895 184.425 104.618 184.425 106.998V119H180.141V107.848C180.141 106.465 179.869 105.434 179.325 104.754C178.781 104.051 177.92 103.7 176.741 103.7C175.018 103.7 173.84 104.244 173.205 105.332C172.57 106.397 172.253 107.95 172.253 109.99V119H167.969V100.572H171.267L171.879 102.986H172.117C172.525 102.351 173.024 101.83 173.613 101.422C174.202 101.014 174.86 100.719 175.585 100.538C176.31 100.334 177.058 100.232 177.829 100.232ZM199.337 103.802H194.883V119H190.599V103.802H187.641V101.762L190.599 100.538V99.28C190.599 97.6933 190.849 96.4467 191.347 95.54C191.846 94.6333 192.571 93.9873 193.523 93.602C194.475 93.194 195.597 92.99 196.889 92.99C197.796 92.99 198.612 93.0693 199.337 93.228C200.063 93.364 200.663 93.5227 201.139 93.704L200.051 96.9C199.666 96.7867 199.235 96.6847 198.759 96.594C198.306 96.4807 197.807 96.424 197.263 96.424C196.447 96.424 195.847 96.6847 195.461 97.206C195.076 97.7273 194.883 98.4527 194.883 99.382V100.572H199.337V103.802ZM206.681 119H202.397V93.16H206.681V119ZM228.516 100.572V119H225.15L224.572 116.62H224.368C223.983 117.255 223.484 117.776 222.872 118.184C222.26 118.569 221.592 118.853 220.866 119.034C220.141 119.238 219.393 119.34 218.622 119.34C217.262 119.34 216.084 119.102 215.086 118.626C214.089 118.15 213.33 117.425 212.808 116.45C212.287 115.453 212.026 114.172 212.026 112.608V100.572H216.31V111.758C216.31 113.118 216.582 114.149 217.126 114.852C217.67 115.532 218.532 115.872 219.71 115.872C220.866 115.872 221.773 115.634 222.43 115.158C223.088 114.659 223.552 113.945 223.824 113.016C224.096 112.087 224.232 110.942 224.232 109.582V100.572H228.516ZM241.389 100.232C243.043 100.232 244.46 100.572 245.639 101.252C246.84 101.909 247.769 102.861 248.427 104.108C249.084 105.332 249.413 106.828 249.413 108.596V110.772H237.241C237.286 112.449 237.751 113.753 238.635 114.682C239.519 115.589 240.743 116.042 242.307 116.042C243.508 116.042 244.573 115.929 245.503 115.702C246.455 115.453 247.429 115.101 248.427 114.648V118.082C247.52 118.513 246.579 118.83 245.605 119.034C244.63 119.238 243.463 119.34 242.103 119.34C240.312 119.34 238.714 119 237.309 118.32C235.926 117.617 234.838 116.563 234.045 115.158C233.274 113.753 232.889 112.007 232.889 109.922C232.889 107.814 233.24 106.046 233.943 104.618C234.668 103.167 235.665 102.079 236.935 101.354C238.204 100.606 239.689 100.232 241.389 100.232ZM241.389 103.394C240.255 103.394 239.326 103.768 238.601 104.516C237.898 105.241 237.479 106.329 237.343 107.78H245.265C245.265 106.919 245.117 106.159 244.823 105.502C244.551 104.845 244.131 104.335 243.565 103.972C242.998 103.587 242.273 103.394 241.389 103.394ZM263.593 100.232C265.655 100.232 267.265 100.765 268.421 101.83C269.599 102.895 270.189 104.618 270.189 106.998V119H265.905V107.848C265.905 106.465 265.633 105.434 265.089 104.754C264.545 104.051 263.683 103.7 262.505 103.7C260.782 103.7 259.603 104.244 258.969 105.332C258.334 106.397 258.017 107.95 258.017 109.99V119H253.733V100.572H257.031L257.643 102.986H257.881C258.289 102.351 258.787 101.83 259.377 101.422C259.966 101.014 260.623 100.719 261.349 100.538C262.074 100.334 262.822 100.232 263.593 100.232ZM282.993 119.34C281.248 119.34 279.729 119.011 278.437 118.354C277.168 117.674 276.182 116.643 275.479 115.26C274.799 113.855 274.459 112.064 274.459 109.888C274.459 107.621 274.833 105.785 275.581 104.38C276.352 102.952 277.406 101.909 278.743 101.252C280.08 100.572 281.61 100.232 283.333 100.232C284.489 100.232 285.52 100.345 286.427 100.572C287.334 100.799 288.104 101.071 288.739 101.388L287.481 104.754C286.778 104.482 286.076 104.255 285.373 104.074C284.67 103.87 283.99 103.768 283.333 103.768C282.313 103.768 281.463 103.995 280.783 104.448C280.126 104.901 279.638 105.581 279.321 106.488C279.004 107.372 278.845 108.494 278.845 109.854C278.845 111.169 279.004 112.268 279.321 113.152C279.661 114.036 280.16 114.705 280.817 115.158C281.474 115.589 282.29 115.804 283.265 115.804C284.308 115.804 285.226 115.679 286.019 115.43C286.812 115.181 287.56 114.841 288.263 114.41V118.116C287.56 118.547 286.801 118.853 285.985 119.034C285.192 119.238 284.194 119.34 282.993 119.34ZM299.992 100.232C301.647 100.232 303.064 100.572 304.242 101.252C305.444 101.909 306.373 102.861 307.03 104.108C307.688 105.332 308.016 106.828 308.016 108.596V110.772H295.844C295.89 112.449 296.354 113.753 297.238 114.682C298.122 115.589 299.346 116.042 300.91 116.042C302.112 116.042 303.177 115.929 304.106 115.702C305.058 115.453 306.033 115.101 307.03 114.648V118.082C306.124 118.513 305.183 118.83 304.208 119.034C303.234 119.238 302.066 119.34 300.706 119.34C298.916 119.34 297.318 119 295.912 118.32C294.53 117.617 293.442 116.563 292.648 115.158C291.878 113.753 291.492 112.007 291.492 109.922C291.492 107.814 291.844 106.046 292.546 104.618C293.272 103.167 294.269 102.079 295.538 101.354C296.808 100.606 298.292 100.232 299.992 100.232ZM299.992 103.394C298.859 103.394 297.93 103.768 297.204 104.516C296.502 105.241 296.082 106.329 295.946 107.78H303.868C303.868 106.919 303.721 106.159 303.426 105.502C303.154 104.845 302.735 104.335 302.168 103.972C301.602 103.587 300.876 103.394 299.992 103.394ZM318.422 119.34C316.291 119.34 314.557 118.547 313.22 116.96C311.905 115.351 311.248 112.971 311.248 109.82C311.248 106.669 311.917 104.289 313.254 102.68C314.591 101.048 316.348 100.232 318.524 100.232C319.431 100.232 320.224 100.357 320.904 100.606C321.607 100.833 322.207 101.15 322.706 101.558C323.205 101.966 323.624 102.419 323.964 102.918H324.168C324.1 102.601 324.032 102.113 323.964 101.456C323.896 100.799 323.862 100.187 323.862 99.62V93.16H328.146V119H324.814L324.032 116.586H323.862C323.522 117.085 323.103 117.549 322.604 117.98C322.105 118.388 321.516 118.717 320.836 118.966C320.156 119.215 319.351 119.34 318.422 119.34ZM319.714 115.872C321.301 115.872 322.423 115.419 323.08 114.512C323.737 113.605 324.066 112.234 324.066 110.398V109.854C324.066 107.859 323.749 106.341 323.114 105.298C322.502 104.255 321.346 103.734 319.646 103.734C318.354 103.734 317.357 104.278 316.654 105.366C315.951 106.431 315.6 107.939 315.6 109.888C315.6 111.837 315.951 113.322 316.654 114.342C317.357 115.362 318.377 115.872 319.714 115.872Z" fill="#898989"/>
</svg>
