<svg width="284" height="184" viewBox="0 0 284 184" fill="none" xmlns="http://www.w3.org/2000/svg">
<path d="M34.4041 36.34C32.6588 36.34 31.1401 36.0113 29.8481 35.354C28.5788 34.674 27.5928 33.6427 26.8901 32.26C26.2101 30.8547 25.8701 29.064 25.8701 26.888C25.8701 24.6213 26.2441 22.7853 26.9921 21.38C27.7628 19.952 28.8168 18.9093 30.1541 18.252C31.4914 17.572 33.0214 17.232 34.7441 17.232C35.9001 17.232 36.9314 17.3453 37.8381 17.572C38.7448 17.7987 39.5154 18.0707 40.1501 18.388L38.8921 21.754C38.1894 21.482 37.4868 21.2553 36.7841 21.074C36.0814 20.87 35.4014 20.768 34.7441 20.768C33.7241 20.768 32.8741 20.9947 32.1941 21.448C31.5368 21.9013 31.0494 22.5813 30.7321 23.488C30.4148 24.372 30.2561 25.494 30.2561 26.854C30.2561 28.1687 30.4148 29.268 30.7321 30.152C31.0721 31.036 31.5708 31.7047 32.2281 32.158C32.8854 32.5887 33.7014 32.804 34.6761 32.804C35.7188 32.804 36.6368 32.6793 37.4301 32.43C38.2234 32.1807 38.9714 31.8407 39.6741 31.41V35.116C38.9714 35.5467 38.2121 35.8527 37.3961 36.034C36.6028 36.238 35.6054 36.34 34.4041 36.34ZM60.4473 26.752C60.4473 28.2933 60.2433 29.6533 59.8353 30.832C59.4273 32.0107 58.838 33.0193 58.0673 33.858C57.3193 34.674 56.39 35.2973 55.2793 35.728C54.1913 36.136 52.9786 36.34 51.6413 36.34C50.372 36.34 49.2046 36.136 48.1393 35.728C47.074 35.2973 46.1446 34.674 45.3513 33.858C44.5806 33.0193 43.98 32.0107 43.5493 30.832C43.1186 29.6533 42.9033 28.2933 42.9033 26.752C42.9033 24.712 43.2546 22.9893 43.9573 21.584C44.66 20.156 45.6686 19.0793 46.9833 18.354C48.3206 17.606 49.896 17.232 51.7093 17.232C53.432 17.232 54.9393 17.606 56.2313 18.354C57.546 19.0793 58.5773 20.156 59.3253 21.584C60.0733 22.9893 60.4473 24.712 60.4473 26.752ZM47.2893 26.752C47.2893 28.044 47.4366 29.1547 47.7313 30.084C48.0486 30.9907 48.5246 31.682 49.1593 32.158C49.8166 32.634 50.6553 32.872 51.6753 32.872C52.718 32.872 53.5566 32.634 54.1913 32.158C54.8486 31.682 55.3246 30.9907 55.6193 30.084C55.914 29.1547 56.0613 28.044 56.0613 26.752C56.0613 25.4373 55.9026 24.338 55.5853 23.454C55.2906 22.5473 54.8146 21.8673 54.1573 21.414C53.5226 20.938 52.6953 20.7 51.6753 20.7C50.134 20.7 49.012 21.2213 48.3093 22.264C47.6293 23.3067 47.2893 24.8027 47.2893 26.752ZM85.9901 17.232C88.0754 17.232 89.6394 17.7647 90.6821 18.83C91.7474 19.8953 92.2801 21.618 92.2801 23.998V36H87.9961V24.814C87.9961 23.454 87.7467 22.434 87.2481 21.754C86.7494 21.0513 85.9561 20.7 84.8681 20.7C83.3721 20.7 82.3067 21.1873 81.6721 22.162C81.0374 23.1367 80.7201 24.5533 80.7201 26.412V36H76.4361V24.814C76.4361 23.9073 76.3227 23.148 76.0961 22.536C75.8694 21.924 75.5181 21.4707 75.0421 21.176C74.5887 20.8587 73.9994 20.7 73.2741 20.7C72.2541 20.7 71.4381 20.9493 70.8261 21.448C70.2141 21.924 69.7834 22.6267 69.5341 23.556C69.2847 24.4853 69.1601 25.63 69.1601 26.99V36H64.8761V17.572H68.1741L68.7861 19.986H69.0241C69.4094 19.3513 69.8741 18.83 70.4181 18.422C70.9847 18.014 71.6081 17.7193 72.2881 17.538C72.9907 17.334 73.6934 17.232 74.3961 17.232C75.7787 17.232 76.9461 17.47 77.8981 17.946C78.8501 18.3993 79.5641 19.1133 80.0401 20.088H80.3801C80.9467 19.0907 81.7401 18.3653 82.7601 17.912C83.8027 17.4587 84.8794 17.232 85.9901 17.232ZM118.762 17.232C120.847 17.232 122.411 17.7647 123.454 18.83C124.519 19.8953 125.052 21.618 125.052 23.998V36H120.768V24.814C120.768 23.454 120.518 22.434 120.02 21.754C119.521 21.0513 118.728 20.7 117.64 20.7C116.144 20.7 115.078 21.1873 114.444 22.162C113.809 23.1367 113.492 24.5533 113.492 26.412V36H109.208V24.814C109.208 23.9073 109.094 23.148 108.868 22.536C108.641 21.924 108.29 21.4707 107.814 21.176C107.36 20.8587 106.771 20.7 106.046 20.7C105.026 20.7 104.21 20.9493 103.598 21.448C102.986 21.924 102.555 22.6267 102.306 23.556C102.056 24.4853 101.932 25.63 101.932 26.99V36H97.6476V17.572H100.946L101.558 19.986H101.796C102.181 19.3513 102.646 18.83 103.19 18.422C103.756 18.014 104.38 17.7193 105.06 17.538C105.762 17.334 106.465 17.232 107.168 17.232C108.55 17.232 109.718 17.47 110.67 17.946C111.622 18.3993 112.336 19.1133 112.812 20.088H113.152C113.718 19.0907 114.512 18.3653 115.532 17.912C116.574 17.4587 117.651 17.232 118.762 17.232ZM146.773 17.572V36H143.407L142.829 33.62H142.625C142.24 34.2547 141.741 34.776 141.129 35.184C140.517 35.5693 139.848 35.8527 139.123 36.034C138.398 36.238 137.65 36.34 136.879 36.34C135.519 36.34 134.34 36.102 133.343 35.626C132.346 35.15 131.586 34.4247 131.065 33.45C130.544 32.4527 130.283 31.172 130.283 29.608V17.572H134.567V28.758C134.567 30.118 134.839 31.1493 135.383 31.852C135.927 32.532 136.788 32.872 137.967 32.872C139.123 32.872 140.03 32.634 140.687 32.158C141.344 31.6593 141.809 30.9453 142.081 30.016C142.353 29.0867 142.489 27.942 142.489 26.582V17.572H146.773ZM162.093 17.232C164.156 17.232 165.765 17.7647 166.921 18.83C168.1 19.8953 168.689 21.618 168.689 23.998V36H164.405V24.848C164.405 23.4653 164.133 22.434 163.589 21.754C163.045 21.0513 162.184 20.7 161.005 20.7C159.283 20.7 158.104 21.244 157.469 22.332C156.835 23.3973 156.517 24.95 156.517 26.99V36H152.233V17.572H155.531L156.143 19.986H156.381C156.789 19.3513 157.288 18.83 157.877 18.422C158.467 18.014 159.124 17.7193 159.849 17.538C160.575 17.334 161.323 17.232 162.093 17.232ZM178.332 17.572V36H174.048V17.572H178.332ZM176.19 10.466C176.825 10.466 177.38 10.636 177.856 10.976C178.332 11.2933 178.57 11.8713 178.57 12.71C178.57 13.526 178.332 14.1153 177.856 14.478C177.38 14.818 176.825 14.988 176.19 14.988C175.533 14.988 174.966 14.818 174.49 14.478C174.037 14.1153 173.81 13.526 173.81 12.71C173.81 11.8713 174.037 11.2933 174.49 10.976C174.966 10.636 175.533 10.466 176.19 10.466ZM190.95 32.906C191.494 32.906 192.015 32.8607 192.514 32.77C193.012 32.6567 193.477 32.532 193.908 32.396V35.592C193.454 35.796 192.865 35.966 192.14 36.102C191.414 36.2607 190.655 36.34 189.862 36.34C188.819 36.34 187.867 36.17 187.006 35.83C186.167 35.4673 185.487 34.8553 184.966 33.994C184.467 33.1327 184.218 31.9313 184.218 30.39V20.802H181.736V18.932L184.456 17.436L185.816 13.526H188.502V17.572H193.738V20.802H188.502V30.356C188.502 31.2173 188.728 31.8633 189.182 32.294C189.635 32.702 190.224 32.906 190.95 32.906ZM194.868 17.572H199.526L203.198 27.976C203.357 28.4293 203.493 28.8713 203.606 29.302C203.742 29.71 203.855 30.1293 203.946 30.56C204.037 30.9907 204.105 31.4213 204.15 31.852H204.286C204.377 31.2853 204.513 30.662 204.694 29.982C204.898 29.302 205.102 28.6333 205.306 27.976L208.842 17.572H213.466L205.612 38.448C205.159 39.6493 204.581 40.6807 203.878 41.542C203.198 42.4033 202.382 43.0493 201.43 43.48C200.501 43.9333 199.447 44.16 198.268 44.16C197.724 44.16 197.237 44.126 196.806 44.058C196.398 44.0127 196.035 43.956 195.718 43.888V40.488C195.967 40.5333 196.262 40.5787 196.602 40.624C196.965 40.6693 197.339 40.692 197.724 40.692C198.427 40.692 199.027 40.5447 199.526 40.25C200.047 39.978 200.478 39.5927 200.818 39.094C201.181 38.5953 201.475 38.04 201.702 37.428L202.246 35.932L194.868 17.572ZM241.504 26.752C241.504 28.2933 241.3 29.6533 240.892 30.832C240.484 32.0107 239.895 33.0193 239.124 33.858C238.376 34.674 237.447 35.2973 236.336 35.728C235.248 36.136 234.035 36.34 232.698 36.34C231.429 36.34 230.261 36.136 229.196 35.728C228.131 35.2973 227.201 34.674 226.408 33.858C225.637 33.0193 225.037 32.0107 224.606 30.832C224.175 29.6533 223.96 28.2933 223.96 26.752C223.96 24.712 224.311 22.9893 225.014 21.584C225.717 20.156 226.725 19.0793 228.04 18.354C229.377 17.606 230.953 17.232 232.766 17.232C234.489 17.232 235.996 17.606 237.288 18.354C238.603 19.0793 239.634 20.156 240.382 21.584C241.13 22.9893 241.504 24.712 241.504 26.752ZM228.346 26.752C228.346 28.044 228.493 29.1547 228.788 30.084C229.105 30.9907 229.581 31.682 230.216 32.158C230.873 32.634 231.712 32.872 232.732 32.872C233.775 32.872 234.613 32.634 235.248 32.158C235.905 31.682 236.381 30.9907 236.676 30.084C236.971 29.1547 237.118 28.044 237.118 26.752C237.118 25.4373 236.959 24.338 236.642 23.454C236.347 22.5473 235.871 21.8673 235.214 21.414C234.579 20.938 233.752 20.7 232.732 20.7C231.191 20.7 230.069 21.2213 229.366 22.264C228.686 23.3067 228.346 24.8027 228.346 26.752ZM255.487 20.802H251.033V36H246.749V20.802H243.791V18.762L246.749 17.538V16.28C246.749 14.6933 246.998 13.4467 247.497 12.54C247.995 11.6333 248.721 10.9873 249.673 10.602C250.625 10.194 251.747 9.99 253.039 9.99C253.945 9.99 254.761 10.0693 255.487 10.228C256.212 10.364 256.813 10.5227 257.289 10.704L256.201 13.9C255.815 13.7867 255.385 13.6847 254.909 13.594C254.455 13.4807 253.957 13.424 253.413 13.424C252.597 13.424 251.996 13.6847 251.611 14.206C251.225 14.7273 251.033 15.4527 251.033 16.382V17.572H255.487V20.802ZM57.8468 174.34C55.7162 174.34 53.9822 173.547 52.6448 171.96C51.3302 170.351 50.6728 167.971 50.6728 164.82C50.6728 161.669 51.3415 159.289 52.6788 157.68C54.0162 156.048 55.7728 155.232 57.9488 155.232C58.8555 155.232 59.6488 155.357 60.3288 155.606C61.0315 155.833 61.6322 156.15 62.1308 156.558C62.6295 156.966 63.0488 157.419 63.3888 157.918H63.5928C63.5248 157.601 63.4568 157.113 63.3888 156.456C63.3208 155.799 63.2868 155.187 63.2868 154.62V148.16H67.5708V174H64.2388L63.4568 171.586H63.2868C62.9468 172.085 62.5275 172.549 62.0288 172.98C61.5302 173.388 60.9408 173.717 60.2608 173.966C59.5808 174.215 58.7762 174.34 57.8468 174.34ZM59.1388 170.872C60.7255 170.872 61.8475 170.419 62.5048 169.512C63.1622 168.605 63.4908 167.234 63.4908 165.398V164.854C63.4908 162.859 63.1735 161.341 62.5388 160.298C61.9268 159.255 60.7708 158.734 59.0708 158.734C57.7788 158.734 56.7815 159.278 56.0788 160.366C55.3762 161.431 55.0248 162.939 55.0248 164.888C55.0248 166.837 55.3762 168.322 56.0788 169.342C56.7815 170.362 57.8015 170.872 59.1388 170.872ZM80.456 155.232C82.1107 155.232 83.5274 155.572 84.706 156.252C85.9074 156.909 86.8367 157.861 87.494 159.108C88.1514 160.332 88.48 161.828 88.48 163.596V165.772H76.308C76.3534 167.449 76.818 168.753 77.702 169.682C78.586 170.589 79.81 171.042 81.374 171.042C82.5754 171.042 83.6407 170.929 84.57 170.702C85.522 170.453 86.4967 170.101 87.494 169.648V173.082C86.5874 173.513 85.6467 173.83 84.672 174.034C83.6974 174.238 82.53 174.34 81.17 174.34C79.3794 174.34 77.7814 174 76.376 173.32C74.9934 172.617 73.9054 171.563 73.112 170.158C72.3414 168.753 71.956 167.007 71.956 164.922C71.956 162.814 72.3074 161.046 73.01 159.618C73.7354 158.167 74.7327 157.079 76.002 156.354C77.2714 155.606 78.756 155.232 80.456 155.232ZM80.456 158.394C79.3227 158.394 78.3934 158.768 77.668 159.516C76.9654 160.241 76.546 161.329 76.41 162.78H84.332C84.332 161.919 84.1847 161.159 83.89 160.502C83.618 159.845 83.1987 159.335 82.632 158.972C82.0654 158.587 81.34 158.394 80.456 158.394ZM96.3858 174L89.3818 155.572H93.9038L97.5758 166.214C97.7345 166.645 97.8818 167.121 98.0178 167.642C98.1538 168.141 98.2672 168.639 98.3578 169.138C98.4712 169.614 98.5392 170.033 98.5618 170.396H98.6978C98.7432 170.011 98.8225 169.58 98.9358 169.104C99.0492 168.605 99.1738 168.107 99.3098 167.608C99.4685 167.109 99.6158 166.645 99.7518 166.214L103.424 155.572H107.946L100.942 174H96.3858ZM118.108 155.232C119.763 155.232 121.18 155.572 122.358 156.252C123.56 156.909 124.489 157.861 125.146 159.108C125.804 160.332 126.132 161.828 126.132 163.596V165.772H113.96C114.006 167.449 114.47 168.753 115.354 169.682C116.238 170.589 117.462 171.042 119.026 171.042C120.228 171.042 121.293 170.929 122.222 170.702C123.174 170.453 124.149 170.101 125.146 169.648V173.082C124.24 173.513 123.299 173.83 122.324 174.034C121.35 174.238 120.182 174.34 118.822 174.34C117.032 174.34 115.434 174 114.028 173.32C112.646 172.617 111.558 171.563 110.764 170.158C109.994 168.753 109.608 167.007 109.608 164.922C109.608 162.814 109.96 161.046 110.662 159.618C111.388 158.167 112.385 157.079 113.654 156.354C114.924 155.606 116.408 155.232 118.108 155.232ZM118.108 158.394C116.975 158.394 116.046 158.768 115.32 159.516C114.618 160.241 114.198 161.329 114.062 162.78H121.984C121.984 161.919 121.837 161.159 121.542 160.502C121.27 159.845 120.851 159.335 120.284 158.972C119.718 158.587 118.992 158.394 118.108 158.394ZM134.736 174H130.452V148.16H134.736V174ZM156.67 164.752C156.67 166.293 156.466 167.653 156.058 168.832C155.65 170.011 155.061 171.019 154.29 171.858C153.542 172.674 152.613 173.297 151.502 173.728C150.414 174.136 149.201 174.34 147.864 174.34C146.595 174.34 145.427 174.136 144.362 173.728C143.297 173.297 142.367 172.674 141.574 171.858C140.803 171.019 140.203 170.011 139.772 168.832C139.341 167.653 139.126 166.293 139.126 164.752C139.126 162.712 139.477 160.989 140.18 159.584C140.883 158.156 141.891 157.079 143.206 156.354C144.543 155.606 146.119 155.232 147.932 155.232C149.655 155.232 151.162 155.606 152.454 156.354C153.769 157.079 154.8 158.156 155.548 159.584C156.296 160.989 156.67 162.712 156.67 164.752ZM143.512 164.752C143.512 166.044 143.659 167.155 143.954 168.084C144.271 168.991 144.747 169.682 145.382 170.158C146.039 170.634 146.878 170.872 147.898 170.872C148.941 170.872 149.779 170.634 150.414 170.158C151.071 169.682 151.547 168.991 151.842 168.084C152.137 167.155 152.284 166.044 152.284 164.752C152.284 163.437 152.125 162.338 151.808 161.454C151.513 160.547 151.037 159.867 150.38 159.414C149.745 158.938 148.918 158.7 147.898 158.7C146.357 158.7 145.235 159.221 144.532 160.264C143.852 161.307 143.512 162.803 143.512 164.752ZM170.789 155.232C172.942 155.232 174.676 156.037 175.991 157.646C177.305 159.233 177.963 161.601 177.963 164.752C177.963 166.837 177.657 168.594 177.045 170.022C176.433 171.45 175.583 172.527 174.495 173.252C173.407 173.977 172.137 174.34 170.687 174.34C169.803 174.34 169.021 174.227 168.341 174C167.661 173.751 167.083 173.445 166.607 173.082C166.131 172.697 165.723 172.289 165.383 171.858H165.111C165.201 172.266 165.269 172.731 165.315 173.252C165.36 173.751 165.383 174.227 165.383 174.68V182.16H161.099V155.572H164.567L165.179 158.02H165.383C165.723 157.499 166.131 157.034 166.607 156.626C167.105 156.195 167.695 155.855 168.375 155.606C169.077 155.357 169.882 155.232 170.789 155.232ZM169.565 158.7C168.567 158.7 167.763 158.904 167.151 159.312C166.539 159.697 166.097 160.298 165.825 161.114C165.553 161.93 165.405 162.95 165.383 164.174V164.718C165.383 166.033 165.507 167.143 165.757 168.05C166.029 168.957 166.471 169.648 167.083 170.124C167.717 170.6 168.567 170.838 169.633 170.838C170.539 170.838 171.276 170.589 171.843 170.09C172.432 169.591 172.863 168.889 173.135 167.982C173.429 167.053 173.577 165.953 173.577 164.684C173.577 162.78 173.248 161.307 172.591 160.264C171.956 159.221 170.947 158.7 169.565 158.7ZM189.794 155.232C191.449 155.232 192.865 155.572 194.044 156.252C195.245 156.909 196.175 157.861 196.832 159.108C197.489 160.332 197.818 161.828 197.818 163.596V165.772H185.646C185.691 167.449 186.156 168.753 187.04 169.682C187.924 170.589 189.148 171.042 190.712 171.042C191.913 171.042 192.979 170.929 193.908 170.702C194.86 170.453 195.835 170.101 196.832 169.648V173.082C195.925 173.513 194.985 173.83 194.01 174.034C193.035 174.238 191.868 174.34 190.508 174.34C188.717 174.34 187.119 174 185.714 173.32C184.331 172.617 183.243 171.563 182.45 170.158C181.679 168.753 181.294 167.007 181.294 164.922C181.294 162.814 181.645 161.046 182.348 159.618C183.073 158.167 184.071 157.079 185.34 156.354C186.609 155.606 188.094 155.232 189.794 155.232ZM189.794 158.394C188.661 158.394 187.731 158.768 187.006 159.516C186.303 160.241 185.884 161.329 185.748 162.78H193.67C193.67 161.919 193.523 161.159 193.228 160.502C192.956 159.845 192.537 159.335 191.97 158.972C191.403 158.587 190.678 158.394 189.794 158.394ZM211.794 155.232C212.066 155.232 212.383 155.243 212.746 155.266C213.108 155.289 213.414 155.334 213.664 155.402L213.29 159.38C213.086 159.335 212.814 159.301 212.474 159.278C212.156 159.233 211.873 159.21 211.624 159.21C210.944 159.21 210.286 159.323 209.652 159.55C209.04 159.754 208.484 160.071 207.986 160.502C207.51 160.91 207.124 161.443 206.83 162.1C206.558 162.757 206.422 163.539 206.422 164.446V174H202.138V155.572H205.436L206.048 158.768H206.252C206.614 158.111 207.068 157.521 207.612 157C208.156 156.456 208.779 156.025 209.482 155.708C210.207 155.391 210.978 155.232 211.794 155.232ZM229.625 168.662C229.625 169.886 229.331 170.929 228.741 171.79C228.152 172.629 227.279 173.263 226.123 173.694C224.99 174.125 223.596 174.34 221.941 174.34C220.649 174.34 219.539 174.249 218.609 174.068C217.68 173.887 216.796 173.603 215.957 173.218V169.58C216.864 170.011 217.873 170.373 218.983 170.668C220.094 170.963 221.125 171.11 222.077 171.11C223.256 171.11 224.106 170.929 224.627 170.566C225.149 170.203 225.409 169.716 225.409 169.104C225.409 168.741 225.307 168.413 225.103 168.118C224.899 167.823 224.503 167.517 223.913 167.2C223.324 166.86 222.429 166.441 221.227 165.942C220.049 165.466 219.063 164.99 218.269 164.514C217.499 164.038 216.909 163.471 216.501 162.814C216.116 162.134 215.923 161.284 215.923 160.264C215.923 158.609 216.581 157.363 217.895 156.524C219.21 155.663 220.944 155.232 223.097 155.232C224.231 155.232 225.296 155.345 226.293 155.572C227.313 155.776 228.333 156.116 229.353 156.592L227.993 159.754C227.427 159.505 226.86 159.289 226.293 159.108C225.749 158.904 225.194 158.745 224.627 158.632C224.083 158.519 223.528 158.462 222.961 158.462C222.032 158.462 221.329 158.609 220.853 158.904C220.377 159.176 220.139 159.561 220.139 160.06C220.139 160.445 220.253 160.785 220.479 161.08C220.729 161.352 221.148 161.635 221.737 161.93C222.349 162.202 223.211 162.565 224.321 163.018C225.432 163.449 226.373 163.902 227.143 164.378C227.937 164.831 228.549 165.398 228.979 166.078C229.41 166.758 229.625 167.619 229.625 168.662Z" fill="#898989"/>
<path d="M56.1469 56.7C60.2802 56.7 64.0135 57.3333 67.3469 58.6C70.6802 59.8667 73.3469 61.7667 75.3469 64.3C77.3469 66.8333 78.3469 70 78.3469 73.8C78.3469 76.6667 77.7469 79.2 76.5469 81.4C75.4135 83.5333 73.8469 85.4 71.8469 87C69.9135 88.6 67.7135 90.0333 65.2469 91.3C67.9802 92.6333 70.5135 94.2 72.8469 96C75.1802 97.7333 77.0469 99.8 78.4469 102.2C79.9135 104.533 80.6469 107.3 80.6469 110.5C80.6469 114.433 79.6135 117.867 77.5469 120.8C75.5469 123.733 72.7135 126 69.0469 127.6C65.3802 129.2 61.1135 130 56.2469 130C50.9802 130 46.5135 129.233 42.8469 127.7C39.1802 126.167 36.3802 123.967 34.4469 121.1C32.5135 118.233 31.5469 114.833 31.5469 110.9C31.5469 107.633 32.1802 104.8 33.4469 102.4C34.7802 100 36.5135 97.9333 38.6469 96.2C40.7802 94.4 43.1135 92.9 45.6469 91.7C43.4469 90.3667 41.4469 88.8667 39.6469 87.2C37.8469 85.4667 36.4135 83.5333 35.3469 81.4C34.3469 79.2 33.8469 76.6333 33.8469 73.7C33.8469 69.9667 34.8469 66.8333 36.8469 64.3C38.9135 61.7667 41.6135 59.8667 44.9469 58.6C48.3469 57.3333 52.0802 56.7 56.1469 56.7ZM43.5469 110.3C43.5469 113.233 44.5802 115.667 46.6469 117.6C48.7135 119.467 51.8469 120.4 56.0469 120.4C58.8469 120.4 61.1469 120 62.9469 119.2C64.8135 118.333 66.2135 117.133 67.1469 115.6C68.1469 114.067 68.6469 112.3 68.6469 110.3C68.6469 108.3 68.0802 106.533 66.9469 105C65.8135 103.467 64.3469 102.1 62.5469 100.9C60.7469 99.7 58.7469 98.6 56.5469 97.6L55.1469 96.9C52.7469 97.9667 50.6802 99.1667 48.9469 100.5C47.2135 101.767 45.8802 103.2 44.9469 104.8C44.0135 106.4 43.5469 108.233 43.5469 110.3ZM56.0469 66.2C53.1135 66.2 50.6802 66.9333 48.7469 68.4C46.8802 69.8667 45.9469 71.9333 45.9469 74.6C45.9469 76.5333 46.4135 78.2 47.3469 79.6C48.2802 81 49.5135 82.2 51.0469 83.2C52.6469 84.2 54.3802 85.1667 56.2469 86.1C58.1135 85.2333 59.7802 84.3 61.2469 83.3C62.7802 82.3 63.9802 81.1 64.8469 79.7C65.7802 78.3 66.2469 76.6 66.2469 74.6C66.2469 71.9333 65.2802 69.8667 63.3469 68.4C61.4802 66.9333 59.0469 66.2 56.0469 66.2ZM137.773 93.2C137.773 99 137.34 104.167 136.473 108.7C135.607 113.233 134.173 117.1 132.173 120.3C130.24 123.433 127.707 125.833 124.573 127.5C121.507 129.167 117.74 130 113.273 130C107.673 130 103.073 128.533 99.4734 125.6C95.8734 122.667 93.2068 118.467 91.4734 113C89.7401 107.467 88.8734 100.867 88.8734 93.2C88.8734 85.5333 89.6734 78.9667 91.2734 73.5C92.8734 68.0333 95.4401 63.8333 98.9734 60.9C102.573 57.9667 107.34 56.5 113.273 56.5C118.873 56.5 123.473 57.9667 127.073 60.9C130.673 63.7667 133.34 67.9667 135.073 73.5C136.873 78.9667 137.773 85.5333 137.773 93.2ZM101.573 93.3C101.573 99.1 101.94 103.967 102.673 107.9C103.407 111.767 104.607 114.7 106.273 116.7C108.007 118.633 110.34 119.6 113.273 119.6C116.207 119.6 118.507 118.633 120.173 116.7C121.907 114.767 123.14 111.833 123.873 107.9C124.673 103.967 125.073 99.1 125.073 93.3C125.073 87.4333 124.673 82.5667 123.873 78.7C123.14 74.7667 121.907 71.8333 120.173 69.9C118.507 67.9 116.207 66.9 113.273 66.9C110.34 66.9 108.007 67.9 106.273 69.9C104.607 71.8333 103.407 74.7333 102.673 78.6C101.94 82.4667 101.573 87.3667 101.573 93.3ZM195 93.2C195 99 194.567 104.167 193.7 108.7C192.833 113.233 191.4 117.1 189.4 120.3C187.467 123.433 184.933 125.833 181.8 127.5C178.733 129.167 174.967 130 170.5 130C164.9 130 160.3 128.533 156.7 125.6C153.1 122.667 150.433 118.467 148.7 113C146.967 107.467 146.1 100.867 146.1 93.2C146.1 85.5333 146.9 78.9667 148.5 73.5C150.1 68.0333 152.667 63.8333 156.2 60.9C159.8 57.9667 164.567 56.5 170.5 56.5C176.1 56.5 180.7 57.9667 184.3 60.9C187.9 63.7667 190.567 67.9667 192.3 73.5C194.1 78.9667 195 85.5333 195 93.2ZM158.8 93.3C158.8 99.1 159.167 103.967 159.9 107.9C160.633 111.767 161.833 114.7 163.5 116.7C165.233 118.633 167.567 119.6 170.5 119.6C173.433 119.6 175.733 118.633 177.4 116.7C179.133 114.767 180.367 111.833 181.1 107.9C181.9 103.967 182.3 99.1 182.3 93.3C182.3 87.4333 181.9 82.5667 181.1 78.7C180.367 74.7667 179.133 71.8333 177.4 69.9C175.733 67.9 173.433 66.9 170.5 66.9C167.567 66.9 165.233 67.9 163.5 69.9C161.833 71.8333 160.633 74.7333 159.9 78.6C159.167 82.4667 158.8 87.3667 158.8 93.3ZM232.427 89.1H251.727V98.4H232.427V117.9H223.027V98.4H203.827V89.1H223.027V69.4H232.427V89.1Z" fill="#EA4235"/>
</svg>
